<svg width="149" height="148" viewBox="0 0 149 148" fill="none" xmlns="http://www.w3.org/2000/svg">
<path d="M114.134 57.8662C102.904 73.3174 89.9401 86.809 74.7904 99.0945C73.7352 100.451 72.2277 101.506 70.4942 101.959C67.4793 102.863 64.6905 101.959 62.8063 99.396C55.7967 89.8238 47.2043 81.6083 38.009 75.5786C37.406 75.2771 36.9538 74.9002 36.5769 74.448C33.9389 71.81 34.4665 68.3429 36.3508 66.0064C38.3858 63.3684 42.2298 61.8609 45.4708 64.0467C54.2892 69.775 62.0525 76.5584 68.9114 84.3971C81.2723 74.2973 92.4273 62.6146 101.17 50.7059C101.698 50.0276 102.226 49.3492 102.829 48.8216C106.597 44.9777 110.818 45.0531 113.381 46.9373C116.245 49.0478 117.451 53.4947 114.134 57.8662Z" fill="#2D4F7F"/>
<path d="M104.28 129.471C75.3377 129.471 37.8027 135.802 22.879 103.844C17.0001 91.2571 18.5075 73.5448 19.0351 59.8271C19.8642 36.5373 35.9937 19.2772 59.5851 18.3727C87.2465 17.2421 128.475 12.4183 130.133 50.4811C131.188 74.9015 139.102 127.134 104.28 129.471ZM145.358 34.1254C139.178 14.0765 120.862 1.86633 100.361 0.961847C72.1721 -0.2441 37.878 -3.1836 16.9247 19.4279C-3.04881 41.0596 -4.85774 88.996 8.93529 114.622C28.6827 151.479 68.8558 146.881 104.28 146.881C104.959 146.881 105.637 146.806 106.24 146.655C124.706 144.771 140.836 133.842 146.036 115.15C149.503 102.337 147.544 87.1871 147.544 74.1478C147.544 61.2592 149.202 46.6371 145.358 34.1254Z" fill="#2D4F7F"/>
<path d="M113.381 46.9373C110.818 45.0531 106.597 44.9777 102.829 48.8216C102.226 49.3492 101.698 50.0276 101.17 50.7059C92.4273 62.6146 81.2723 74.2973 68.9114 84.3971C62.0525 76.5584 54.2893 69.775 45.4708 64.0467C42.2298 61.8609 38.4612 63.3684 36.3508 66.0064C34.4665 68.3429 33.9389 71.81 36.5769 74.448C36.9538 74.9002 37.406 75.2771 38.009 75.5786C47.2043 81.6083 55.7967 89.8238 62.8063 99.396C64.6905 101.959 67.5547 102.863 70.5695 101.959C72.2277 101.506 73.7352 100.451 74.7904 99.0945C90.0154 86.809 102.904 73.3174 114.21 57.8662C117.375 53.4947 116.245 49.0478 113.381 46.9373Z" fill="#2D4F7F"/>
</svg>
