<svg width="141" height="148" viewBox="0 0 141 148" fill="none" xmlns="http://www.w3.org/2000/svg">
<path d="M100.812 86.8215C100.284 92.1729 98.7767 95.3384 94.8574 98.6548C85.2098 106.795 69.9847 105.664 59.1312 100.916C52.3477 97.9765 46.6195 93.2281 42.7755 86.8968C38.1778 79.2843 38.404 70.3151 40.5144 62.0242C42.6248 55.2407 46.3934 49.6632 52.7999 46.1961C59.1312 42.729 67.6482 42.1261 74.4316 44.6133C85.662 48.6834 94.0283 59.3862 98.1737 70.3151C100.133 75.4403 101.415 81.3193 100.812 86.8215ZM71.7182 32.0262C53.0261 30.7449 37.6502 44.6887 32.525 61.9488C32.4496 62.1749 32.3742 62.4764 32.3742 62.7779C32.2989 63.004 32.2235 63.1548 32.1481 63.3809C27.8519 79.2843 31.0175 95.3385 43.9815 106.041C53.8551 114.106 68.4019 117.573 80.8382 114.86C95.0081 111.845 105.786 101.594 108.952 87.3491C111.665 74.9881 107.444 61.6473 100.661 51.246C94.2544 41.4477 83.8531 32.8553 71.7182 32.0262Z" fill="#FCB713"/>
<path d="M87.3704 81.1693C87.0689 84.1842 86.2398 85.9931 84.054 87.8774C78.5519 92.475 69.9595 91.7967 63.8544 89.1587C60.0105 87.5005 56.7695 84.7871 54.6591 81.2447C52.0964 76.9485 52.1718 71.9739 53.3024 67.3009C54.5083 63.4569 56.6187 60.216 60.312 58.2563C63.8544 56.2966 68.6782 55.9198 72.5222 57.3518C78.8534 59.613 83.5264 65.7181 85.9383 71.8232C86.9935 74.7627 87.7472 78.079 87.3704 81.1693ZM71.0147 50.2669C60.3873 49.5132 51.7196 57.4272 48.8555 67.1502C48.7801 67.3009 48.7801 67.527 48.7047 67.6778C48.7047 67.7531 48.6293 67.9039 48.6293 67.9792C46.2175 76.9485 47.951 85.9931 55.3374 92.0228C60.9149 96.6205 69.0551 98.5048 76.14 96.9973C84.1294 95.3392 90.1591 89.5356 91.9681 81.4708C93.5509 74.4612 91.139 66.9994 87.3704 61.1204C83.6772 55.5429 77.7982 50.7191 71.0147 50.2669Z" fill="#FCB713"/>
<path d="M124.244 96.7706C123.265 106.117 120.627 111.694 113.768 117.498C96.7337 131.969 69.9014 129.859 50.757 121.568C38.8483 116.367 28.7485 108.001 21.965 96.846C13.9003 83.5806 14.2017 67.8279 17.895 53.2058C21.5882 41.1463 28.2963 31.348 39.602 25.1675C50.8324 19.0624 65.756 17.9319 77.7401 22.3034C97.5628 29.4637 112.26 48.382 119.571 67.5264C123.038 76.7218 125.3 86.8969 124.244 96.7706ZM73.067 0.144122C39.9789 -2.11704 12.9204 22.5295 3.95119 52.9043C3.87581 53.2812 3.72507 53.7334 3.57433 54.261C3.49895 54.6379 3.34823 55.0901 3.19747 55.4669C-4.33969 83.4298 1.23781 111.694 24.1508 130.537C41.4863 144.782 67.1127 150.812 88.9705 146.139C113.994 140.788 132.988 122.698 138.565 97.6751C143.389 75.8173 135.927 52.3013 124.018 34.0614C112.713 16.7259 94.3972 1.65156 73.067 0.144122Z" fill="#FCB713"/>
<path d="M76.2964 80.1137C73.8092 82.1487 70.0406 81.8472 67.2518 80.6413C65.5937 79.8876 64.1616 78.757 63.1818 77.1742C62.0512 75.2145 62.0512 72.9534 62.5788 70.843C63.1818 69.1848 64.0862 67.7527 65.669 66.9236C67.2518 66.0192 69.4376 65.8684 71.1712 66.4714C73.9599 67.5266 76.0703 70.24 77.1255 72.9534C77.5778 74.2347 77.8792 75.7421 77.8039 77.0988C77.6531 78.4555 77.2763 79.2846 76.2964 80.1137ZM70.4928 63.3812C65.7444 63.0043 61.9005 66.5468 60.6191 70.843C60.6191 70.9184 60.5438 70.9937 60.5438 71.0691C60.5438 71.1445 60.5438 71.1445 60.4684 71.2198C59.4132 75.2145 60.1669 79.2846 63.4833 81.9226C65.9705 83.9577 69.5884 84.8621 72.754 84.1838C76.2965 83.43 79.0098 80.792 79.8389 77.2496C80.5173 74.1593 79.462 70.7676 77.7285 68.205C76.1457 65.7177 73.5077 63.5319 70.4928 63.3812Z" fill="#FCB713"/>
</svg>
