<svg width="36" height="36" viewBox="0 0 36 36" fill="none" xmlns="http://www.w3.org/2000/svg">
<circle cx="18" cy="18" r="18" fill="#FCB713"/>
<g clip-path="url(#clip0_97_772)">
<path d="M21.6934 17.3457L22.127 17.7793C22.3105 17.9629 22.3105 18.2598 22.127 18.4414L18.332 22.2383C18.1484 22.4219 17.8516 22.4219 17.6699 22.2383L13.873 18.4414C13.6895 18.2578 13.6895 17.9609 13.873 17.7793L14.3066 17.3457C14.4922 17.1602 14.7949 17.1641 14.9766 17.3535L17.2188 19.707V14.0938C17.2188 13.834 17.4277 13.625 17.6875 13.625H18.3125C18.5723 13.625 18.7812 13.834 18.7812 14.0938V19.707L21.0234 17.3535C21.2051 17.1621 21.5078 17.1582 21.6934 17.3457Z" fill="white"/>
</g>
<defs>
<clipPath id="clip0_97_772">
<rect width="10" height="10" fill="white" transform="translate(13 13)"/>
</clipPath>
</defs>
</svg>
