<svg width="148" height="90" viewBox="0 0 148 90" fill="none" xmlns="http://www.w3.org/2000/svg">
<path d="M145.023 80.659C147.661 77.1165 148.339 72.745 146.756 69.2779C145.173 65.5846 141.405 63.2481 136.204 62.7205C118.718 60.7609 101.533 59.781 84.4993 59.781C61.5109 59.781 38.824 61.5146 15.9864 65.057C11.4641 65.7354 7.84626 67.6197 5.5851 70.5592C3.70081 72.9711 2.87171 76.0613 3.32395 79.0008C4.00229 83.8246 8.5246 89.4021 18.8505 89.4021C20.3579 89.4021 22.0161 89.3267 23.6743 89.0252C55.7826 84.1261 91.132 83.5985 126.029 87.4424C134.245 88.3469 141.179 85.8596 145.023 80.659ZM2.79634 14.4826C0.38445 18.1759 -0.143157 22.5474 1.5904 25.9391C3.32395 29.557 7.16789 31.7428 12.4439 32.0442C53.5969 34.833 92.6394 32.4211 132.436 24.5071C141.857 22.6982 145.626 15.8393 144.495 10.0357C143.289 3.93061 136.28 -1.57155 123.693 0.915735C91.8857 7.17157 56.5364 9.28198 21.4885 6.94547C20.8102 6.87008 20.1318 6.8701 19.4535 6.8701C12.0671 6.8701 6.1127 9.58348 2.79634 14.4826Z" fill="#7BB951"/>
</svg>
