<svg width="25" height="25" viewBox="0 0 25 25" fill="none" xmlns="http://www.w3.org/2000/svg">
<path d="M14.0625 6.64062V0H4.29688C3.64746 0 3.125 0.522461 3.125 1.17188V23.8281C3.125 24.4775 3.64746 25 4.29688 25H20.7031C21.3525 25 21.875 24.4775 21.875 23.8281V7.8125H15.2344C14.5898 7.8125 14.0625 7.28516 14.0625 6.64062ZM16.8506 12.5H18.0176C18.3936 12.5 18.6719 12.8467 18.5889 13.2178L16.7334 21.4209C16.6748 21.6895 16.4355 21.875 16.1621 21.875H14.3066C14.0381 21.875 13.8037 21.6895 13.7402 21.4307C12.4805 16.377 12.7246 17.4658 12.4902 16.0352H12.4658C12.4121 16.7334 12.3486 16.8848 11.2158 21.4307C11.1523 21.6895 10.918 21.875 10.6494 21.875H8.83789C8.56445 21.875 8.3252 21.6846 8.2666 21.416L6.4209 13.2129C6.33789 12.8467 6.61621 12.5 6.99219 12.5H8.18848C8.4668 12.5 8.71094 12.6953 8.76465 12.9736C9.52637 16.7822 9.74609 18.3203 9.79004 18.9404C9.86816 18.4424 10.1465 17.3438 11.2256 12.9492C11.2891 12.6855 11.5234 12.5049 11.7969 12.5049H13.2178C13.4912 12.5049 13.7256 12.6904 13.7891 12.9541C14.9609 17.8564 15.1953 19.0088 15.2344 19.2725C15.2246 18.7256 15.1074 18.4033 16.2891 12.9639C16.3379 12.6904 16.5771 12.5 16.8506 12.5ZM21.875 5.95215V6.25H15.625V0H15.9229C16.2354 0 16.5332 0.12207 16.7529 0.341797L21.5332 5.12695C21.7529 5.34668 21.875 5.64453 21.875 5.95215Z" fill="#FCB713"/>
</svg>
