<svg width="25" height="25" viewBox="0 0 25 25" fill="none" xmlns="http://www.w3.org/2000/svg">
<path d="M14.0625 6.64062V0H4.29688C3.64746 0 3.125 0.522461 3.125 1.17188V23.8281C3.125 24.4775 3.64746 25 4.29688 25H20.7031C21.3525 25 21.875 24.4775 21.875 23.8281V7.8125H15.2344C14.5898 7.8125 14.0625 7.28516 14.0625 6.64062ZM17.1875 18.1641C17.1875 18.4863 16.9238 18.75 16.6016 18.75H8.39844C8.07617 18.75 7.8125 18.4863 7.8125 18.1641V17.7734C7.8125 17.4512 8.07617 17.1875 8.39844 17.1875H16.6016C16.9238 17.1875 17.1875 17.4512 17.1875 17.7734V18.1641ZM17.1875 15.0391C17.1875 15.3613 16.9238 15.625 16.6016 15.625H8.39844C8.07617 15.625 7.8125 15.3613 7.8125 15.0391V14.6484C7.8125 14.3262 8.07617 14.0625 8.39844 14.0625H16.6016C16.9238 14.0625 17.1875 14.3262 17.1875 14.6484V15.0391ZM17.1875 11.5234V11.9141C17.1875 12.2363 16.9238 12.5 16.6016 12.5H8.39844C8.07617 12.5 7.8125 12.2363 7.8125 11.9141V11.5234C7.8125 11.2012 8.07617 10.9375 8.39844 10.9375H16.6016C16.9238 10.9375 17.1875 11.2012 17.1875 11.5234ZM21.875 5.95215V6.25H15.625V0H15.9229C16.2354 0 16.5332 0.12207 16.7529 0.341797L21.5332 5.12695C21.7529 5.34668 21.875 5.64453 21.875 5.95215Z" fill="#FCB713"/>
</svg>
