<svg width="150" height="147" viewBox="0 0 150 147" fill="none" xmlns="http://www.w3.org/2000/svg">
<path d="M117.887 16.6398C119.093 16.5644 120.375 16.7152 121.43 17.0166C125.123 18.2226 127.761 20.7852 129.796 25.0814C131.153 28.0209 131.982 31.488 131.982 34.6536C131.982 36.2364 131.756 37.5931 131.379 38.7237C129.118 45.5071 119.696 49.5019 111.933 49.8033C109.069 49.9541 107.034 49.125 105.526 47.0899C103.793 44.8288 102.738 40.608 102.662 35.7088V35.4827C102.662 27.0411 108.918 17.2428 117.887 16.6398ZM125.048 64.7269C135.675 61.9382 148.564 53.7227 149.619 39.7789C149.694 38.7991 149.77 37.8946 149.77 36.9901C149.77 21.1621 139.821 6.84147 125.651 2.09305C125.425 2.01769 125.274 1.9423 125.198 1.86694C124.972 1.79155 124.671 1.71619 124.52 1.71619C116.908 -0.394213 109.823 -0.0173598 103.491 2.92214C97.4617 5.71089 92.4118 10.61 88.9447 16.9413C86.2313 21.9158 84.7992 27.7194 84.7992 33.8245C84.7992 41.4371 87.0604 48.8235 91.1304 54.5517C99.6474 66.3851 114.194 67.591 125.048 64.7269ZM17.0401 29.0007C18.1707 25.3829 20.7333 22.7449 25.0295 20.7099C27.969 19.3532 31.4361 18.5241 34.6017 18.5241C36.1845 18.5241 37.5412 18.7502 38.6718 19.1271C45.5306 21.3882 49.4499 30.8097 49.7514 38.5729C49.9021 41.4371 49.073 43.3967 47.1134 44.9042C44.7769 46.7131 40.556 47.7683 35.6569 47.7683H35.4308C26.9891 47.7683 17.1908 41.5124 16.6632 32.5432C16.5878 31.4127 16.7386 30.1313 17.0401 29.0007ZM16.8893 61.5613C21.8639 64.2747 27.6675 65.7067 33.7726 65.7067C41.3851 65.7067 48.7716 63.4456 54.4998 59.3002C66.3332 50.8585 67.5391 36.3118 64.675 25.5336C61.8862 14.7555 53.6707 1.94231 39.727 0.811734C38.7471 0.736367 37.8427 0.736362 36.9382 0.736362C21.1102 0.736362 6.78954 10.6854 1.96575 24.8553C1.96575 25.006 1.89038 25.2322 1.89038 25.3075C1.81501 25.5337 1.73963 25.7598 1.66426 25.9105C-0.446145 33.5984 0.00609899 40.608 2.94558 47.0146C5.73433 53.0443 10.5581 58.0188 16.8893 61.5613ZM116.681 130.526C115.476 130.602 114.194 130.451 113.139 130.15C109.446 128.944 106.808 126.456 104.773 122.16C103.416 119.221 102.587 115.678 102.587 112.513C102.587 111.005 102.813 109.648 103.19 108.442C105.451 101.659 114.873 97.6643 122.636 97.3629C125.5 97.2875 127.535 98.1166 129.042 100.076C130.776 102.413 131.831 106.558 131.907 111.457V111.683C131.907 120.125 125.651 129.999 116.681 130.526ZM109.597 82.4393C98.8937 85.228 86.0052 93.5189 84.95 107.463C84.8746 108.367 84.7992 109.272 84.7992 110.251C84.7992 126.004 94.7483 140.4 108.918 145.148C109.144 145.224 109.295 145.299 109.37 145.299C109.597 145.375 109.898 145.45 110.049 145.45C117.661 147.56 124.746 147.184 131.077 144.244C137.107 141.455 142.157 136.632 145.624 130.225C148.338 125.25 149.77 119.447 149.77 113.342C149.77 105.729 147.508 98.4181 143.363 92.6144C134.921 80.7811 120.375 79.5751 109.597 82.4393ZM49.2992 118.165C48.1686 121.783 45.606 124.421 41.3098 126.456C38.3703 127.888 34.9032 128.642 31.7376 128.642C30.1548 128.642 28.7981 128.491 27.6675 128.115C20.8087 125.853 16.8894 116.357 16.5879 108.669C16.4371 105.729 17.2662 103.769 19.2259 102.262C21.5624 100.528 25.7078 99.4733 30.607 99.3979H30.9085C39.3501 99.3979 49.1484 105.654 49.676 114.623C49.7514 115.829 49.6007 117.035 49.2992 118.165ZM49.4499 85.6802C44.4754 82.9669 38.5964 81.5348 32.5667 81.5348C24.9541 81.5348 17.5677 83.7959 11.8394 87.866C0.00608921 96.3077 -1.19985 110.93 1.66426 121.708C4.45301 132.411 12.6685 145.299 26.6123 146.354C27.5921 146.43 28.4966 146.505 29.401 146.505C45.2291 146.505 59.5497 136.481 64.2981 122.311C64.3735 122.16 64.4489 122.009 64.4489 121.859C64.5243 121.633 64.5996 121.406 64.675 121.256C66.7854 113.643 66.3332 106.558 63.3937 100.227C60.6049 94.1973 55.7811 89.1473 49.4499 85.6802Z" fill="#EF5125"/>
</svg>
