<svg width="55" height="57" viewBox="0 0 55 57" fill="none" xmlns="http://www.w3.org/2000/svg">
<path d="M51.5092 30.9004C40.7184 34.6886 33.9127 41.8665 30.4615 52.4041C29.9684 53.9098 28.497 55.095 27.4784 56.4286C26.6436 55.1203 25.4108 53.9161 25.0368 52.4872C22.0669 41.1376 15.0525 33.944 3.63797 31.0772C2.69926 30.8414 1.79196 30.4483 0.909279 30.0429C0.669213 29.9327 0.572414 29.5105 0.0302734 28.5799C1.39496 27.8709 2.6647 26.9977 4.06878 26.516C14.626 22.8943 21.4669 15.8443 24.5416 5.04218C25.0148 3.37974 26.571 2.02556 27.6263 0.528809C28.6766 2.02975 30.2384 3.39058 30.6941 5.05437C33.6516 15.8523 40.4016 23.0323 50.7873 26.9445C51.5625 27.2365 52.3409 27.526 53.0924 27.8718C53.3767 28.0026 53.5893 28.2894 54.2572 28.8768C53.3966 29.5634 52.6167 30.1857 51.5092 30.9004ZM31.512 20.0192C30.3849 18.4762 29.2578 16.9333 28.3888 15.7438C24.1343 20.5201 20.1386 25.0057 16.6114 28.9656C20.4325 33.7132 24.2753 38.4879 27.448 42.4299C31.2982 38.0114 35.6343 33.0353 38.7865 29.4179C36.6234 26.6197 34.2838 23.593 31.512 20.0192Z" fill="#D75C39"/>
</svg>
