<svg width="67" height="48" viewBox="0 0 67 48" fill="none" xmlns="http://www.w3.org/2000/svg">
<path d="M59.2384 2.89348C68.6504 15.3656 68.9829 31.8267 60.2631 43.5957C59.4761 44.6579 58.68 45.8772 57.5892 46.5011C56.6284 47.0507 55.2491 46.8688 54.0546 47.0099C53.9712 45.8015 53.3286 44.1377 53.8871 43.452C64.7148 30.1568 63.9869 17.089 53.5834 3.96141C52.997 3.22135 53.5624 1.5684 53.5917 0.340332C55.3949 1.10671 57.198 1.87309 59.2384 2.89348Z" fill="#83B061"/>
<path d="M5.60981 41.3504C-0.983033 29.0607 -0.675727 17.1903 6.0588 5.46557C6.79413 4.18538 7.6607 2.77071 8.84655 2.01468C10.1915 1.15723 11.9646 0.97129 13.5515 0.493408C13.3198 2.11404 13.6511 4.20256 12.7599 5.27512C8.687 10.1765 6.18547 15.5813 5.89673 21.988C5.56833 29.2747 7.76706 35.6926 12.2445 41.4185C13.5711 43.1149 16.2356 45.0826 13.2678 47.0949C12.4371 47.6581 9.75797 45.8927 8.18313 44.8194C7.15281 44.1171 6.58374 42.7381 5.60981 41.3504Z" fill="#83B061"/>
<path d="M55.4672 13.6754C58.6309 22.362 58.268 30.4473 53.1137 37.8104C52.0436 39.3392 49.4841 39.8253 47.611 40.792C47.9892 38.9328 47.855 36.7302 48.8322 35.2727C53.6228 28.1278 53.6397 19.8874 48.6096 12.3913C47.4393 10.6471 44.5122 8.66568 47.659 6.7453C48.575 6.18629 51.4079 8.23123 53.0097 9.52043C54.0941 10.3931 54.5626 12.0311 55.4672 13.6754Z" fill="#83B061"/>
<path d="M18.862 6.32227C21.9993 8.18405 20.5144 9.98961 19.2499 11.8255C13.2795 20.4936 13.3804 26.8633 19.2085 35.7077C20.0638 37.0057 19.7072 39.1023 19.9114 40.8294C18.2579 40.1893 16.0737 40.0151 15.0371 38.8337C8.23937 31.0868 8.28246 16.5544 14.9794 8.74614C15.8893 7.6853 17.3221 7.073 18.862 6.32227Z" fill="#83B061"/>
<path d="M26.7408 26.1065C25.6234 21.8534 26.7074 18.3446 30.4942 17.2394C32.9178 16.5321 36.9823 16.9513 38.4257 18.5586C40.0988 20.4216 40.504 24.3148 39.9186 26.9894C39.5513 28.667 36.1439 31.0251 34.4637 30.7617C31.7777 30.3406 29.3937 27.9939 26.7408 26.1065Z" fill="#85B260"/>
<path d="M22.9951 22.3468C23.9053 25.5144 25.0224 28.237 25.6999 31.065C26.0186 32.3956 25.4922 33.9287 25.3488 35.3701C24.0652 34.9633 22.4152 34.9292 21.5589 34.0876C16.88 29.4894 16.7106 18.4395 21.2975 13.8172C22.2172 12.8903 24.1028 12.922 25.543 12.5117C25.5133 13.8577 25.7615 15.287 25.389 16.5303C24.8277 18.4034 23.8326 20.1466 22.9951 22.3468Z" fill="#83B061"/>
<path d="M46.1486 33.977C44.5933 34.4705 43.2841 34.7031 41.9749 34.9356C42.0111 33.5754 41.5426 31.8942 42.1689 30.9092C45.2105 26.1255 45.0239 21.6395 42.0496 16.8965C41.3544 15.788 41.8427 13.9372 41.7865 12.428C43.3567 12.9568 45.4193 13.0279 46.4109 14.0946C50.4619 18.4527 50.297 27.0863 46.1486 33.977Z" fill="#84B161"/>
</svg>
