<svg width="65" height="59" viewBox="0 0 65 59" fill="none" xmlns="http://www.w3.org/2000/svg">
<path d="M3.46549 0H60.9655V38.3333H3.46549V0Z" fill="#254AA5"/>
<path d="M30.9859 8.35421L32.2012 7.46532L33.4164 8.35421L32.9512 6.91671L34.1873 6.03476H32.6664L32.2012 4.58337L31.7359 6.03476H30.222L31.4512 6.91671L30.9859 8.35421ZM24.7081 10.0348L25.9233 9.15281L27.1387 10.0348L26.6733 8.60421L27.9095 7.72227H26.3887L25.9233 6.27088L25.4581 7.72227H23.9373L25.1733 8.60421L24.7081 10.0348ZM21.3261 10.875L20.8679 12.3264H19.3471L20.5761 13.2084L20.1179 14.6459L21.3261 13.757L22.5415 14.6459L22.0831 13.2084L23.3123 12.3264H21.7984L21.3261 10.875ZM19.6456 20.0278L20.854 20.9098L20.3956 19.4792L21.6248 18.5972H20.1109L19.6456 17.1459L19.1804 18.5972H17.6595L18.8956 19.4792L18.4304 20.9098L19.6456 20.0278ZM21.7915 24.889L21.3261 23.4375L20.8679 24.889H19.3471L20.5761 25.7708L20.1179 27.2014L21.3261 26.3195L22.5415 27.2014L22.0831 25.7708L23.3123 24.889H21.7915ZM26.3956 29.4862L25.9304 28.0418L25.4651 29.4931L23.9512 29.4862L25.1804 30.3751L24.722 31.8056L25.9304 30.9167L27.1456 31.8056L26.6873 30.3751L27.9164 29.4862H26.3956ZM32.6664 31.1528L32.2012 29.7084L31.7359 31.1598L30.222 31.1528L31.4512 32.0418L30.9928 33.4723L32.2012 32.5903L33.4164 33.4723L32.9512 32.0418L34.1873 31.1528H32.6664ZM38.9373 29.4862L38.472 28.0418L38.0067 29.4931L36.4928 29.4862L37.722 30.3751L37.2637 31.8056L38.472 30.9167L39.6873 31.8056L39.222 30.3751L40.4581 29.4862H38.9373ZM43.5415 24.889L43.0761 23.4375L42.6109 24.889H41.0971L42.3261 25.7708L41.8679 27.2014L43.0761 26.3195L44.2915 27.2014L43.8261 25.7708L45.0623 24.889H43.5415ZM46.7289 18.5764H45.2081L44.7428 17.1251L44.2776 18.5834L42.7637 18.5764L43.9928 19.4654L43.5345 20.8959L44.7428 20.007L45.9581 20.8959L45.4997 19.4654L46.7289 18.5764ZM41.8679 14.6251L43.0761 13.7362L44.2915 14.6251L43.8261 13.1945L45.0623 12.3056H43.5415L43.0761 10.8542L42.6109 12.3056H41.0971L42.3261 13.1945L41.8679 14.6251ZM38.4928 6.27088L38.0276 7.72227H36.5067L37.7428 8.60421L37.2776 10.0417L38.4928 9.15281L39.7012 10.0417L39.2428 8.60421L40.4789 7.72227H38.9581L38.4928 6.27088Z" fill="#FFF100"/>
<path d="M16.5972 49.2499V44.3402H19.9584V45.1735H17.5833V46.3333H19.632V47.1597H17.5833V49.2499H16.5972ZM23.1111 49.2499V48.7153C22.9792 48.9027 22.8056 49.0555 22.5972 49.1666C22.3889 49.2709 22.1667 49.3263 21.9305 49.3263C21.6944 49.3263 21.4792 49.2778 21.2917 49.1735C21.0972 49.0694 20.9584 48.9166 20.8751 48.7291C20.7917 48.5417 20.75 48.2778 20.75 47.9445V45.6945H21.6875V47.3263C21.6875 47.8263 21.7084 48.1319 21.7431 48.243C21.7777 48.3611 21.8403 48.4514 21.9305 48.5139C22.0208 48.5833 22.1389 48.6111 22.2777 48.6111C22.4375 48.6111 22.5833 48.5694 22.7084 48.4791C22.8333 48.3889 22.9236 48.2847 22.9723 48.1527C23.0208 48.0209 23.0417 47.7014 23.0417 47.1945V45.6945H23.9861V49.2499H23.1111ZM28.1875 49.2499H27.25V47.4306C27.25 47.0486 27.2292 46.8055 27.1875 46.6875C27.1459 46.5763 27.0833 46.4861 26.9931 46.4235C26.9028 46.3611 26.7987 46.3333 26.6667 46.3333C26.5069 46.3333 26.3611 46.375 26.2292 46.4653C26.0972 46.5555 26.0139 46.6735 25.9653 46.8194C25.9167 46.9722 25.8889 47.243 25.8889 47.6389V49.2499H24.9513V45.6945H25.8264V46.2153C26.132 45.8125 26.5277 45.6111 26.9931 45.6111C27.2013 45.6111 27.3959 45.6527 27.5625 45.7222C27.7361 45.7986 27.868 45.8958 27.9513 46.0139C28.0417 46.125 28.1041 46.2569 28.1389 46.4027C28.1736 46.5555 28.1875 46.7639 28.1875 47.0417V49.2499ZM29.8959 47.3958C29.8959 47.7709 29.9444 48.0486 30.0556 48.2153C30.2013 48.4653 30.4167 48.5833 30.6875 48.5833C30.9028 48.5833 31.0903 48.493 31.2431 48.3125C31.3889 48.125 31.4653 47.8473 31.4653 47.4861C31.4653 47.0763 31.3959 46.7847 31.25 46.6042C31.0972 46.4235 30.9097 46.3333 30.6805 46.3333C30.4584 46.3333 30.2708 46.4235 30.118 46.5973C29.9723 46.7778 29.8959 47.0417 29.8959 47.3958ZM32.4028 49.2499H31.5347V48.7291C31.3889 48.9306 31.2153 49.0833 31.0208 49.1806C30.8195 49.2778 30.6251 49.3263 30.4236 49.3263C30.0139 49.3263 29.6597 49.1666 29.368 48.8333C29.0764 48.5069 28.9375 48.0486 28.9375 47.4583C28.9375 46.8542 29.0764 46.3958 29.3611 46.0833C29.6459 45.7709 30 45.6111 30.4305 45.6111C30.8333 45.6111 31.1736 45.7778 31.4653 46.1111V44.3402H32.4028V49.2499ZM35.4444 47.1666C35.4375 46.8958 35.368 46.6875 35.2361 46.5486C35.1041 46.4027 34.9375 46.3333 34.7431 46.3333C34.5417 46.3333 34.3751 46.4097 34.2361 46.5555C34.1041 46.7083 34.0347 46.9097 34.0417 47.1666H35.4444ZM35.3889 48.1181L36.3264 48.2709C36.2083 48.6181 36.0208 48.8819 35.7569 49.0625C35.5 49.2361 35.1736 49.3263 34.7847 49.3263C34.1667 49.3263 33.7084 49.125 33.4097 48.7222C33.1736 48.4027 33.0556 47.993 33.0556 47.4999C33.0556 46.9097 33.2153 46.4445 33.5208 46.1111C33.8264 45.7778 34.2153 45.6111 34.6875 45.6111C35.2153 45.6111 35.6389 45.7847 35.9444 46.1389C36.25 46.4861 36.3959 47.0209 36.382 47.743H34.0208C34.0277 48.0209 34.1041 48.2361 34.25 48.3958C34.3959 48.5486 34.5764 48.625 34.7917 48.625C34.9375 48.625 35.0625 48.5833 35.1667 48.5069C35.2639 48.4235 35.3403 48.2917 35.3889 48.1181ZM37.8959 47.3958C37.8959 47.7709 37.9513 48.0486 38.0556 48.2153C38.2084 48.4653 38.4167 48.5833 38.6875 48.5833C38.9028 48.5833 39.0903 48.493 39.2431 48.3125C39.3959 48.125 39.4723 47.8473 39.4723 47.4861C39.4723 47.0763 39.3959 46.7847 39.25 46.6042C39.1041 46.4235 38.9097 46.3333 38.6805 46.3333C38.4584 46.3333 38.2708 46.4235 38.1251 46.5973C37.9723 46.7778 37.8959 47.0417 37.8959 47.3958ZM40.4097 49.2499H39.5347V48.7291C39.3889 48.9306 39.2153 49.0833 39.0208 49.1806C38.8195 49.2778 38.6251 49.3263 38.4236 49.3263C38.0139 49.3263 37.6667 49.1666 37.3751 48.8333C37.0833 48.5069 36.9375 48.0486 36.9375 47.4583C36.9375 46.8542 37.0764 46.3958 37.3611 46.0833C37.6459 45.7709 38 45.6111 38.4375 45.6111C38.8333 45.6111 39.1736 45.7778 39.4653 46.1111V44.3402H40.4097V49.2499ZM44.132 47.3958C44.132 47.7639 44.1944 48.0347 44.3056 48.2083C44.4723 48.4583 44.6875 48.5833 44.9584 48.5833C45.1667 48.5833 45.3403 48.4999 45.4861 48.3194C45.632 48.1389 45.7084 47.8611 45.7084 47.4791C45.7084 47.0763 45.632 46.7847 45.4861 46.6042C45.3403 46.4235 45.1528 46.3333 44.9167 46.3333C44.6944 46.3333 44.5069 46.4166 44.3541 46.5973C44.2084 46.7709 44.132 47.0347 44.132 47.3958ZM43.2013 49.2499V44.3402H44.1389V46.1111C44.4305 45.7778 44.7708 45.6111 45.1736 45.6111C45.6041 45.6111 45.9653 45.7709 46.2431 46.0833C46.5277 46.3958 46.6736 46.8473 46.6736 47.4375C46.6736 48.0417 46.5277 48.5069 46.2361 48.8402C45.9513 49.1666 45.5972 49.3263 45.1875 49.3263C44.9792 49.3263 44.7777 49.2778 44.5833 49.1735C44.3889 49.0763 44.2153 48.9235 44.0764 48.7291V49.2499H43.2013ZM46.9792 45.6945H47.9861L48.8333 48.2153L49.6667 45.6945H50.6389L49.382 49.1181L49.1597 49.7361C49.0764 49.9445 49 50.0973 48.9236 50.2083C48.8472 50.3194 48.7639 50.4097 48.6667 50.4722C48.5695 50.5417 48.4444 50.5973 48.3056 50.6319C48.1667 50.6735 48.0069 50.6945 47.8264 50.6945C47.6459 50.6945 47.4653 50.6735 47.2917 50.6319L47.2084 49.8958C47.3541 49.9306 47.4931 49.9445 47.6111 49.9445C47.8264 49.9445 47.9861 49.875 48.0903 49.7499C48.2013 49.6181 48.2777 49.4583 48.3333 49.2569L46.9792 45.6945ZM2.02084 53.9235V54.6735H1.375V56.1042C1.375 56.3958 1.38195 56.5625 1.39584 56.6111C1.40972 56.6597 1.43751 56.6945 1.47917 56.7291C1.52083 56.7639 1.57639 56.7778 1.63889 56.7778C1.72223 56.7778 1.85416 56.743 2.01389 56.6875L2.09723 57.4166C1.875 57.5069 1.63195 57.5555 1.35417 57.5555C1.1875 57.5555 1.03472 57.5278 0.895833 57.4722C0.756944 57.4166 0.659724 57.3402 0.597223 57.2499C0.534723 57.1597 0.486112 57.0347 0.465277 56.8819C0.444445 56.7709 0.430556 56.5555 0.430556 56.2222V54.6735H0V53.9235H0.430556V53.2153L1.375 52.6666V53.9235H2.02084ZM3.61111 52.5694V54.375C3.91667 54.0139 4.27777 53.8402 4.70139 53.8402C4.91667 53.8402 5.11111 53.8819 5.28472 53.9583C5.45833 54.0417 5.59028 54.1458 5.68056 54.2709C5.76389 54.3958 5.82639 54.5347 5.86111 54.6806C5.88889 54.8333 5.90972 55.0694 5.90972 55.3889V57.4791H4.96528V55.5973C4.96528 55.2291 4.95139 54.993 4.91667 54.8889C4.875 54.7917 4.81249 54.7083 4.72223 54.6458C4.63195 54.5902 4.52083 54.5625 4.38195 54.5625C4.22916 54.5625 4.09028 54.5973 3.96528 54.6735C3.84028 54.7499 3.75 54.8681 3.69444 55.0209C3.63889 55.1735 3.61111 55.3958 3.61111 55.6945V57.4791H2.67361V52.5694H3.61111ZM8.97223 55.3958C8.96528 55.125 8.89584 54.9166 8.76389 54.7709C8.63195 54.6319 8.46528 54.5625 8.27084 54.5625C8.06944 54.5625 7.90277 54.6319 7.76389 54.7847C7.63195 54.9306 7.56251 55.1389 7.56944 55.3958H8.97223ZM8.92361 56.3473L9.85417 56.4999C9.73611 56.8473 9.54861 57.1111 9.28472 57.2847C9.02777 57.4653 8.70139 57.5555 8.31251 57.5555C7.69444 57.5555 7.23611 57.3542 6.93751 56.9514C6.70139 56.625 6.58333 56.2222 6.58333 55.7222C6.58333 55.1389 6.74305 54.6735 7.04861 54.3402C7.35416 54.0069 7.75 53.8402 8.21528 53.8402C8.74305 53.8402 9.16667 54.0139 9.47223 54.3681C9.77777 54.7153 9.92361 55.2499 9.90972 55.9722H7.54861C7.55556 56.2499 7.63195 56.4653 7.77777 56.6181C7.92361 56.7778 8.10417 56.8542 8.31944 56.8542C8.47223 56.8542 8.59028 56.8125 8.69444 56.7361C8.79167 56.6527 8.86805 56.5209 8.92361 56.3473ZM12.5833 57.4791V52.5694H16.2223V53.3958H13.5764V54.4861H16.0417V55.3125H13.5764V56.6527H16.3195V57.4791H12.5833ZM19.4931 57.4791V56.9445C19.3611 57.1319 19.1944 57.2847 18.9861 57.3958C18.7708 57.4999 18.5487 57.5555 18.3125 57.5555C18.0764 57.5555 17.8611 57.5069 17.6736 57.4027C17.4792 57.2917 17.3472 57.1458 17.2569 56.9583C17.1736 56.7639 17.132 56.5069 17.132 56.1735V53.9235H18.0764V55.5555C18.0764 56.0555 18.0903 56.3611 18.1251 56.4722C18.1597 56.5833 18.2223 56.6735 18.3125 56.743C18.4097 56.8055 18.5208 56.8402 18.6597 56.8402C18.8195 56.8402 18.9653 56.7986 19.0972 56.7083C19.2223 56.6181 19.3056 56.5139 19.3541 56.3819C19.4028 56.2499 19.4236 55.9306 19.4236 55.4235V53.9235H20.368V57.4791H19.4931ZM22.2431 57.4791H21.2987V53.9235H22.1736V54.4235C22.3264 54.1875 22.4584 54.0278 22.5764 53.9514C22.6944 53.875 22.8333 53.8402 22.9861 53.8402C23.2013 53.8402 23.4028 53.9027 23.6041 54.0209L23.3125 54.8402C23.1528 54.7361 23.0069 54.6806 22.868 54.6806C22.7361 54.6806 22.6251 54.7222 22.5347 54.7917C22.4444 54.8681 22.3751 54.993 22.3195 55.1875C22.2708 55.375 22.2431 55.7709 22.2431 56.375V57.4791ZM24.7569 55.7014C24.7569 56.0486 24.8403 56.3194 25.0069 56.5069C25.1736 56.6945 25.382 56.7917 25.6251 56.7917C25.8751 56.7917 26.0764 56.6945 26.2431 56.5069C26.4097 56.3194 26.4931 56.0486 26.4931 55.6945C26.4931 55.3402 26.4097 55.0763 26.2431 54.8889C26.0764 54.7014 25.8751 54.6042 25.6251 54.6042C25.382 54.6042 25.1736 54.7014 25.0069 54.8889C24.8403 55.0763 24.7569 55.3473 24.7569 55.7014ZM23.7917 55.6458C23.7917 55.3333 23.868 55.0347 24.0208 54.743C24.1736 54.4514 24.3959 54.2222 24.6805 54.0694C24.9584 53.9166 25.2777 53.8402 25.6251 53.8402C26.1597 53.8402 26.6041 54.0139 26.9444 54.3611C27.2916 54.7153 27.4584 55.1527 27.4584 55.6875C27.4584 56.2291 27.2847 56.6735 26.9375 57.0278C26.5972 57.3819 26.1597 57.5555 25.632 57.5555C25.3056 57.5555 24.9931 57.4861 24.6944 57.3333C24.4028 57.1875 24.1736 56.9722 24.0208 56.6875C23.868 56.4027 23.7917 56.0555 23.7917 55.6458ZM29.1041 55.6389C29.1041 56.0417 29.1805 56.3333 29.3403 56.5209C29.5 56.7153 29.6875 56.8125 29.9167 56.8125C30.1389 56.8125 30.3195 56.7222 30.4653 56.5486C30.6111 56.375 30.6805 56.0833 30.6805 55.6875C30.6805 55.3125 30.6041 55.0347 30.4584 54.8542C30.3056 54.6735 30.1251 54.5833 29.9028 54.5833C29.6736 54.5833 29.4792 54.6735 29.3264 54.8542C29.1805 55.0278 29.1041 55.2917 29.1041 55.6389ZM28.1667 53.9235H29.0487V54.4445C29.1597 54.2639 29.3195 54.1181 29.5139 54.0069C29.7013 53.8958 29.9167 53.8402 30.1528 53.8402C30.5695 53.8402 30.9236 53.9999 31.2084 54.3263C31.4931 54.6527 31.6389 55.0973 31.6389 55.6806C31.6389 56.2709 31.4931 56.7361 31.2013 57.0625C30.9097 57.3958 30.5625 57.5555 30.1459 57.5555C29.9513 57.5555 29.7777 57.5209 29.618 57.4375C29.4584 57.3611 29.2916 57.2291 29.1111 57.0347V58.8263H28.1667V53.9235ZM34.5 55.3958C34.4931 55.125 34.4236 54.9166 34.2847 54.7709C34.1528 54.6319 33.9931 54.5625 33.7987 54.5625C33.5903 54.5625 33.4236 54.6319 33.2917 54.7847C33.1528 54.9306 33.0903 55.1389 33.0903 55.3958H34.5ZM34.4444 56.3473L35.382 56.4999C35.2639 56.8473 35.0695 57.1111 34.8125 57.2847C34.5487 57.4653 34.2292 57.5555 33.8333 57.5555C33.2153 57.5555 32.7569 57.3542 32.4653 56.9514C32.2292 56.625 32.1111 56.2222 32.1111 55.7222C32.1111 55.1389 32.2639 54.6735 32.5764 54.3402C32.882 54.0069 33.2708 53.8402 33.7431 53.8402C34.2708 53.8402 34.6875 54.0139 34.9931 54.3681C35.2987 54.7153 35.4444 55.2499 35.4305 55.9722H33.0764C33.0833 56.2499 33.1597 56.4653 33.3056 56.6181C33.4444 56.7778 33.632 56.8542 33.8472 56.8542C33.9931 56.8542 34.118 56.8125 34.2153 56.7361C34.3195 56.6527 34.3959 56.5209 34.4444 56.3473ZM38.1597 55.7709C38.0416 55.8125 37.8472 55.8611 37.5903 55.9097C37.3264 55.9653 37.1597 56.0209 37.0764 56.0763C36.9513 56.1666 36.8889 56.2709 36.8889 56.4097C36.8889 56.5417 36.9444 56.6527 37.0417 56.7499C37.1389 56.8473 37.2639 56.8958 37.4167 56.8958C37.5833 56.8958 37.7431 56.8402 37.9028 56.7291C38.0139 56.6389 38.0903 56.5417 38.1251 56.4166C38.1459 56.3333 38.1597 56.1806 38.1597 55.9583V55.7709ZM36.9028 55.0069L36.0487 54.8542C36.1459 54.5069 36.3125 54.2569 36.5417 54.0902C36.7777 53.9235 37.1251 53.8402 37.5903 53.8402C38.0069 53.8402 38.3195 53.8889 38.5277 53.9861C38.7292 54.0902 38.8751 54.2153 38.9584 54.3681C39.0417 54.5209 39.0833 54.7986 39.0833 55.2083L39.0764 56.3055C39.0764 56.6181 39.0903 56.8542 39.118 56.9999C39.1528 57.1458 39.2084 57.3055 39.2917 57.4722H38.3611C38.3333 57.4166 38.3056 57.3194 38.2708 57.2014C38.25 57.1458 38.2431 57.1042 38.2361 57.0902C38.0764 57.243 37.9028 57.3611 37.7153 57.4375C37.5347 57.5209 37.3403 57.5555 37.132 57.5555C36.7639 57.5555 36.4792 57.4583 36.2708 57.2569C36.0556 57.0625 35.9513 56.8055 35.9513 56.5069C35.9513 56.3055 36 56.125 36.0972 55.9653C36.1944 55.8125 36.3264 55.6875 36.5 55.6042C36.6736 55.5209 36.9236 55.4514 37.25 55.3889C37.6875 55.3055 37.9931 55.2291 38.1597 55.1527V55.0625C38.1597 54.8819 38.118 54.7499 38.0277 54.6735C37.9375 54.5973 37.7708 54.5625 37.5208 54.5625C37.3541 54.5625 37.2223 54.5902 37.132 54.6597C37.0347 54.7222 36.9584 54.8402 36.9028 55.0069ZM43.2431 57.4791H42.3056V55.6597C42.3056 55.2778 42.2847 55.0278 42.2431 54.9166C42.2013 54.8055 42.1389 54.7153 42.0487 54.6527C41.9583 54.5902 41.8472 54.5625 41.7223 54.5625C41.5625 54.5625 41.4167 54.6042 41.2847 54.6945C41.1528 54.7847 41.0695 54.9027 41.0208 55.0486C40.9723 55.1945 40.9444 55.4722 40.9444 55.8681V57.4791H40.0069V53.9235H40.882V54.4445C41.1875 54.0417 41.5833 53.8402 42.0487 53.8402C42.2569 53.8402 42.4513 53.875 42.618 53.9514C42.7917 54.0278 42.9236 54.125 43.0069 54.2361C43.0972 54.3542 43.1597 54.4861 43.1944 54.6319C43.2292 54.7847 43.2431 54.993 43.2431 55.2639V57.4791ZM46.1041 52.5694H47.0972V55.2291C47.0972 55.6458 47.1111 55.9235 47.132 56.0486C47.1736 56.2499 47.2777 56.4097 47.4375 56.5278C47.5972 56.6527 47.8125 56.7153 48.0903 56.7153C48.3751 56.7153 48.5833 56.6527 48.7292 56.5417C48.868 56.4235 48.9584 56.2847 48.9861 56.1181C49.0139 55.9514 49.0277 55.6735 49.0277 55.2847V52.5694H50.0208V55.1458C50.0208 55.7361 49.9931 56.1527 49.9375 56.3958C49.882 56.6389 49.7847 56.8473 49.6459 57.0139C49.5 57.1806 49.3056 57.3125 49.0625 57.4097C48.8264 57.5139 48.5069 57.5625 48.118 57.5625C47.6528 57.5625 47.2987 57.5069 47.0556 57.3958C46.8125 57.2917 46.618 57.1527 46.4792 56.9722C46.3403 56.8055 46.25 56.625 46.2013 56.4306C46.1389 56.1527 46.1041 55.7361 46.1041 55.1875V52.5694ZM54.2917 57.4791H53.3472V55.6597C53.3472 55.2778 53.3333 55.0278 53.2917 54.9166C53.25 54.8055 53.1875 54.7153 53.0972 54.6527C53.0069 54.5902 52.8959 54.5625 52.7639 54.5625C52.6041 54.5625 52.4584 54.6042 52.3333 54.6945C52.2013 54.7847 52.1111 54.9027 52.0625 55.0486C52.0139 55.1945 51.9931 55.4722 51.9931 55.8681V57.4791H51.0487V53.9235H51.9236V54.4445C52.2361 54.0417 52.6251 53.8402 53.0972 53.8402C53.3056 53.8402 53.4931 53.875 53.6667 53.9514C53.8403 54.0278 53.9653 54.125 54.0556 54.2361C54.1459 54.3542 54.2013 54.4861 54.2361 54.6319C54.2708 54.7847 54.2917 54.993 54.2917 55.2639V57.4791ZM55.2431 53.9235H56.1875V57.4791H55.2431V53.9235ZM55.2431 52.5694H56.1875V53.4375H55.2431V52.5694ZM57.8959 55.7014C57.8959 56.0486 57.9792 56.3194 58.1459 56.5069C58.3125 56.6945 58.5208 56.7917 58.7708 56.7917C59.0139 56.7917 59.2223 56.6945 59.382 56.5069C59.5487 56.3194 59.632 56.0486 59.632 55.6945C59.632 55.3402 59.5487 55.0763 59.382 54.8889C59.2223 54.7014 59.0139 54.6042 58.7708 54.6042C58.5208 54.6042 58.3125 54.7014 58.1459 54.8889C57.9792 55.0763 57.8959 55.3473 57.8959 55.7014ZM56.9305 55.6458C56.9305 55.3333 57.0069 55.0347 57.1667 54.743C57.3195 54.4514 57.5347 54.2222 57.8195 54.0694C58.1041 53.9166 58.4167 53.8402 58.7639 53.8402C59.2987 53.8402 59.7431 54.0139 60.0903 54.3611C60.4305 54.7153 60.6041 55.1527 60.6041 55.6875C60.6041 56.2291 60.4305 56.6735 60.0833 57.0278C59.7361 57.3819 59.2987 57.5555 58.7708 57.5555C58.4444 57.5555 58.132 57.4861 57.8403 57.3333C57.5417 57.1875 57.3195 56.9722 57.1667 56.6875C57.0069 56.4027 56.9305 56.0555 56.9305 55.6458ZM64.5695 57.4791H63.632V55.6597C63.632 55.2778 63.6111 55.0278 63.5695 54.9166C63.5277 54.8055 63.4653 54.7153 63.3751 54.6527C63.2847 54.5902 63.1736 54.5625 63.0487 54.5625C62.8889 54.5625 62.7361 54.6042 62.6111 54.6945C62.4792 54.7847 62.3959 54.9027 62.3472 55.0486C62.2987 55.1945 62.2708 55.4722 62.2708 55.8681V57.4791H61.3333V53.9235H62.2084V54.4445C62.5139 54.0417 62.9028 53.8402 63.3751 53.8402C63.5833 53.8402 63.7708 53.875 63.9444 53.9514C64.118 54.0278 64.25 54.125 64.3333 54.2361C64.4236 54.3542 64.4861 54.4861 64.5208 54.6319C64.5556 54.7847 64.5695 54.993 64.5695 55.2639V57.4791Z" fill="#254AA5"/>
</svg>
