<svg width="236" height="60" viewBox="0 0 236 60" fill="none" xmlns="http://www.w3.org/2000/svg">
<path d="M136.917 19.3194H134.056L134.125 10.7361H134.069L130.924 19.3194H128.868L125.799 10.7361H125.75L125.819 19.3194H123.062V7.19443H127.222L129.979 14.9652H130.049L132.687 7.19443H136.917V19.3194ZM148.403 13.2083C148.403 12.1319 148.076 11.25 147.431 10.5486C146.777 9.85415 145.944 9.50694 144.931 9.50694C143.909 9.50694 143.083 9.85415 142.437 10.5486C141.792 11.25 141.472 12.1319 141.472 13.2083C141.472 14.2986 141.792 15.2014 142.437 15.9098C143.083 16.618 143.909 16.9722 144.931 16.9722C145.944 16.9722 146.777 16.618 147.431 15.9098C148.076 15.2014 148.403 14.2986 148.403 13.2083ZM151.541 13.2083C151.541 15.1111 150.917 16.6598 149.673 17.8542C148.431 19.0486 146.847 19.6458 144.931 19.6458C143.021 19.6458 141.444 19.0486 140.201 17.8542C138.959 16.6598 138.333 15.1111 138.333 13.2083C138.333 11.2847 138.959 9.74999 140.195 8.59722C141.431 7.44443 143.013 6.86804 144.931 6.86804C146.861 6.86804 148.444 7.44443 149.68 8.59722C150.917 9.74999 151.541 11.2847 151.541 13.2083ZM163.812 19.3194H160.493L155.611 11.3889H155.563L155.632 19.3194H152.785V7.19443H156.125L160.993 15.1042H161.041L160.972 7.19443H163.812V19.3194ZM168.576 19.3194H165.632V7.19443H168.576V19.3194ZM179.688 9.69443H176.264V19.3194H173.333V9.69443H169.909V7.19443H179.688V9.69443ZM190.013 13.2083C190.013 12.1319 189.688 11.25 189.041 10.5486C188.389 9.85415 187.556 9.50694 186.541 9.50694C185.521 9.50694 184.695 9.85415 184.048 10.5486C183.403 11.25 183.076 12.1319 183.076 13.2083C183.076 14.2986 183.403 15.2014 184.048 15.9098C184.695 16.618 185.521 16.9722 186.541 16.9722C187.556 16.9722 188.389 16.618 189.041 15.9098C189.688 15.2014 190.013 14.2986 190.013 13.2083ZM193.145 13.2083C193.145 15.1111 192.528 16.6598 191.285 17.8542C190.035 19.0486 188.459 19.6458 186.541 19.6458C184.632 19.6458 183.056 19.0486 181.812 17.8542C180.569 16.6598 179.944 15.1111 179.944 13.2083C179.944 11.2847 180.563 9.74999 181.805 8.59722C183.041 7.44443 184.619 6.86804 186.541 6.86804C188.465 6.86804 190.048 7.44443 191.292 8.59722C192.528 9.74999 193.145 11.2847 193.145 13.2083ZM201.111 10.9097C201.111 10.0069 200.459 9.55555 199.16 9.55555H197.597V12.3819H198.987C200.403 12.3819 201.111 11.8889 201.111 10.9097ZM204.653 19.3194H201.229L198.611 14.507H197.619V19.3194H194.743V7.19443H199.368C199.979 7.19443 200.548 7.25694 201.076 7.38194C201.604 7.50694 202.091 7.70832 202.548 7.9861C203.007 8.25694 203.361 8.63888 203.619 9.13194C203.875 9.61804 204.007 10.2014 204.007 10.8611C204.007 11.6597 203.785 12.3403 203.333 12.9167C202.889 13.486 202.277 13.8888 201.487 14.1319L204.653 19.3194ZM208.868 19.3194H205.924V7.19443H208.868V19.3194ZM222.056 19.3194H218.729L213.847 11.3889H213.799L213.868 19.3194H211.028V7.19443H214.361L219.229 15.1042H219.277L219.208 7.19443H222.056V19.3194ZM234.979 18.5834C233.645 19.2778 232.091 19.625 230.305 19.625C228.355 19.625 226.757 19.0347 225.513 17.8542C224.264 16.6736 223.645 15.1319 223.645 13.243C223.645 11.3333 224.271 9.79166 225.521 8.62499C226.771 7.45832 228.34 6.86804 230.223 6.86804C231.16 6.86804 232.041 7.01388 232.875 7.30555C233.708 7.59722 234.381 7.9861 234.896 8.47915L233.048 10.5833C232.396 9.83332 231.487 9.45832 230.327 9.45832C229.299 9.45832 228.444 9.81248 227.771 10.5347C227.097 11.2569 226.764 12.1528 226.764 13.243C226.764 14.3819 227.084 15.3055 227.736 16.007C228.389 16.7083 229.299 17.0555 230.459 17.0555C231.18 17.0555 231.792 16.9514 232.292 16.736V14.5208H229.979V12.1597H234.979V18.5834ZM131.556 24.4027H126.139V27.0624H131.132V29.6319H126.139V34.6388H123.062V21.7431H131.556V24.4027ZM143.487 28.1388C143.487 26.9931 143.139 26.0555 142.452 25.3124C141.757 24.5694 140.868 24.2014 139.785 24.2014C138.708 24.2014 137.82 24.5694 137.139 25.3124C136.452 26.0555 136.104 26.9931 136.104 28.1388C136.104 29.3055 136.452 30.2639 137.139 31.0139C137.82 31.7708 138.708 32.1458 139.785 32.1458C140.868 32.1458 141.757 31.7708 142.452 31.0139C143.139 30.2639 143.487 29.3055 143.487 28.1388ZM146.82 28.1388C146.82 30.1667 146.16 31.8124 144.833 33.0834C143.513 34.3542 141.827 34.986 139.785 34.986C137.757 34.986 136.084 34.3542 134.757 33.0834C133.437 31.8124 132.771 30.1667 132.771 28.1388C132.771 26.0972 133.431 24.4652 134.749 23.236C136.069 22.007 137.751 21.3958 139.785 21.3958C141.84 21.3958 143.528 22.007 144.847 23.236C146.16 24.4652 146.82 26.0972 146.82 28.1388ZM154.931 25.6944C154.931 24.736 154.236 24.257 152.855 24.257H151.195V27.2639H152.667C154.173 27.2639 154.931 26.7431 154.931 25.6944ZM158.701 34.6388H155.056L152.271 29.5208H151.215V34.6388H148.153V21.7431H153.069C153.729 21.7431 154.333 21.8124 154.889 21.9444C155.452 22.0764 155.972 22.2847 156.459 22.5764C156.944 22.868 157.327 23.2778 157.597 23.7986C157.875 24.3264 158.007 24.9375 158.007 25.6388C158.007 26.4931 157.771 27.2222 157.299 27.8264C156.827 28.4375 156.167 28.868 155.327 29.118L158.701 34.6388ZM171.619 30.2291C171.619 30.6806 171.584 31.1111 171.521 31.5208C171.452 31.9236 171.327 32.3472 171.139 32.7847C170.944 33.2222 170.701 33.5972 170.396 33.9098C170.097 34.2291 169.688 34.486 169.167 34.6875C168.653 34.8888 168.056 34.986 167.375 34.986C166.32 34.986 165.416 34.7083 164.667 34.1527C163.924 33.5903 163.424 32.8611 163.18 31.9652L165.937 31.0347C166.021 31.375 166.173 31.6458 166.403 31.8542C166.625 32.0624 166.903 32.1598 167.229 32.1598C167.701 32.1598 168.028 32 168.208 31.6736C168.396 31.3403 168.487 30.868 168.487 30.25V21.7431H171.619V30.2291ZM184.409 29.7778C184.409 31.3334 183.903 32.5903 182.889 33.5486C181.875 34.507 180.528 34.986 178.855 34.986C177.173 34.986 175.84 34.5139 174.847 33.5555C173.847 32.6042 173.347 31.3403 173.347 29.7778V21.7431H176.444V29.5208C176.444 30.2847 176.645 30.9236 177.048 31.4236C177.452 31.9306 178.056 32.1806 178.868 32.1806C179.695 32.1806 180.305 31.9306 180.701 31.4236C181.097 30.9236 181.292 30.2847 181.292 29.5208V21.7431H184.409V29.7778ZM195.541 23L193.556 25.0972C193.299 24.7639 192.959 24.5 192.528 24.2916C192.097 24.0834 191.673 23.986 191.264 23.986C190.777 23.986 190.355 24.0834 189.993 24.2847C189.639 24.486 189.459 24.8124 189.459 25.2778C189.459 25.4791 189.5 25.6598 189.584 25.8124C189.667 25.9652 189.812 26.0972 190.013 26.2152C190.215 26.3334 190.409 26.4306 190.604 26.507C190.799 26.5834 191.076 26.6806 191.444 26.7916C191.917 26.9444 192.285 27.0764 192.556 27.1736C192.82 27.2708 193.167 27.4306 193.584 27.6527C194 27.8819 194.327 28.1111 194.563 28.3542C194.792 28.5972 195 28.9236 195.18 29.3334C195.361 29.736 195.452 30.1875 195.452 30.6667C195.452 32.0694 194.979 33.1319 194.021 33.868C193.069 34.6042 191.896 34.9722 190.513 34.9722C189.576 34.9722 188.68 34.8055 187.82 34.4791C186.952 34.1527 186.243 33.6944 185.688 33.1111L187.729 31.0347C188.041 31.4375 188.459 31.7639 188.972 32.0139C189.493 32.2708 190 32.4027 190.513 32.4027C191.035 32.4027 191.465 32.2916 191.799 32.0624C192.132 31.8403 192.299 31.486 192.299 31C192.299 30.8055 192.257 30.6319 192.167 30.4791C192.069 30.3264 191.972 30.2014 191.861 30.0972C191.751 29.9931 191.556 29.8819 191.277 29.757C191 29.6388 190.764 29.5416 190.569 29.4791C190.375 29.4098 190.056 29.3055 189.619 29.1598C189.145 29 188.743 28.8334 188.403 28.6667C188.063 28.4931 187.723 28.2708 187.381 27.9931C187.041 27.7083 186.777 27.3611 186.597 26.9375C186.417 26.507 186.327 26.0139 186.327 25.4583C186.327 24.7778 186.472 24.1667 186.764 23.625C187.056 23.0903 187.444 22.6598 187.924 22.3542C188.409 22.0416 188.944 21.8124 189.521 21.6527C190.097 21.4931 190.695 21.4098 191.312 21.4098C192.069 21.4098 192.827 21.5486 193.584 21.8264C194.34 22.0972 195 22.486 195.541 23ZM206.805 24.4027H203.16V34.6388H200.041V24.4027H196.403V21.7431H206.805V24.4027ZM211.361 34.6388H208.223V21.7431H211.361V34.6388ZM224.827 32.8542C223.597 34.2778 221.924 34.986 219.812 34.986C217.805 34.986 216.153 34.3542 214.84 33.0834C213.528 31.8124 212.868 30.1736 212.868 28.1736C212.868 26.1458 213.535 24.507 214.868 23.2639C216.195 22.0208 217.861 21.3958 219.868 21.3958C220.805 21.3958 221.708 21.5624 222.591 21.8958C223.472 22.2291 224.173 22.6944 224.695 23.2916L222.584 25.4027C222.305 25.0139 221.931 24.7222 221.465 24.5208C220.993 24.3194 220.5 24.2222 219.979 24.2222C218.896 24.2222 218.007 24.5903 217.305 25.3403C216.611 26.0834 216.257 27.0347 216.257 28.1736C216.257 29.3403 216.597 30.2916 217.277 31.0278C217.959 31.7639 218.84 32.125 219.924 32.125C221.125 32.125 222.035 31.6875 222.653 30.8124L224.827 32.8542ZM235.153 34.6388H226.153V21.7431H234.827V24.3819H229.16V26.8055H234.513V29.3055H229.16V31.9791H235.153V34.6388Z" fill="#2D4F7F"/>
<path d="M94.034 26.5418C92.9993 27.9654 91.8048 29.2084 90.409 30.3403C90.3118 30.4654 90.1729 30.5626 90.0132 30.6043C89.7354 30.6876 89.4785 30.6043 89.3048 30.3682C88.659 29.4862 87.8673 28.7292 87.0201 28.1736C86.9645 28.1459 86.9229 28.1112 86.8881 28.0695C86.6452 27.8264 86.6937 27.507 86.8673 27.2918C87.0548 27.0487 87.409 26.9098 87.7076 27.1112C88.5201 27.639 89.2354 28.2639 89.8673 28.9862C91.0062 28.0556 92.034 26.9792 92.8396 25.882C92.8881 25.8195 92.9368 25.757 92.9924 25.7084C93.3396 25.3543 93.7285 25.3612 93.9645 25.5348C94.2285 25.7292 94.3396 26.139 94.034 26.5418Z" fill="#2D4F7F"/>
<path d="M93.1262 33.139C90.4596 33.139 87.0012 33.7223 85.6262 30.7779C85.0845 29.6182 85.2234 27.9863 85.272 26.7223C85.3484 24.5766 86.8345 22.9863 89.0081 22.903C91.5568 22.7987 95.3553 22.3543 95.5081 25.8613C95.6053 28.1113 96.3345 32.9238 93.1262 33.139ZM96.9109 24.3543C96.3414 22.5071 94.654 21.3821 92.765 21.2987C90.1678 21.1877 87.0081 20.9169 85.0776 23.0002C83.2373 24.9933 83.0706 29.4099 84.3414 31.771C86.1609 35.1669 89.8622 34.7433 93.1262 34.7433C93.1886 34.7433 93.2512 34.7363 93.3068 34.7223C95.0081 34.5487 96.4942 33.5418 96.9734 31.8197C97.2929 30.639 97.1122 29.2433 97.1122 28.0418C97.1122 26.8543 97.265 25.5071 96.9109 24.3543Z" fill="#2D4F7F"/>
<path d="M93.9645 25.5348C93.7285 25.3612 93.3396 25.3543 92.9924 25.7084C92.9368 25.757 92.8881 25.8195 92.8396 25.882C92.034 26.9792 91.0062 28.0556 89.8673 28.9862C89.2354 28.2639 88.5201 27.639 87.7076 27.1112C87.409 26.9098 87.0618 27.0487 86.8673 27.2918C86.6937 27.507 86.6452 27.8264 86.8881 28.0695C86.9229 28.1112 86.9645 28.1459 87.0201 28.1736C87.8673 28.7292 88.659 29.4862 89.3048 30.3682C89.4785 30.6043 89.7424 30.6876 90.0201 30.6043C90.1729 30.5626 90.3118 30.4654 90.409 30.3403C91.8118 29.2084 92.9993 27.9654 94.0409 26.5418C94.3326 26.139 94.2285 25.7292 93.9645 25.5348Z" fill="#2D4F7F"/>
<path d="M110.964 22.7433C111.075 22.7363 111.193 22.7502 111.291 22.7779C111.631 22.8891 111.874 23.1251 112.062 23.521C112.186 23.7918 112.263 24.1113 112.263 24.403C112.263 24.5487 112.242 24.6738 112.207 24.7779C111.999 25.403 111.131 25.771 110.416 25.7987C110.152 25.8127 109.964 25.7363 109.825 25.5487C109.666 25.3405 109.568 24.9515 109.562 24.5002V24.4794C109.562 23.7015 110.138 22.7987 110.964 22.7433ZM111.624 27.1738C112.603 26.9169 113.791 26.1599 113.888 24.8751C113.895 24.7849 113.902 24.7015 113.902 24.6182C113.902 23.1599 112.985 21.8405 111.68 21.403C111.659 21.3961 111.645 21.389 111.638 21.3821C111.617 21.3751 111.589 21.3682 111.575 21.3682C110.874 21.1738 110.221 21.2085 109.638 21.4794C109.082 21.7363 108.617 22.1877 108.298 22.771C108.048 23.2294 107.916 23.7641 107.916 24.3266C107.916 25.0279 108.124 25.7085 108.499 26.2363C109.284 27.3266 110.624 27.4377 111.624 27.1738ZM101.673 23.8821C101.777 23.5487 102.013 23.3058 102.409 23.1182C102.68 22.9933 102.999 22.9169 103.291 22.9169C103.436 22.9169 103.562 22.9377 103.666 22.9725C104.298 23.1807 104.659 24.0487 104.686 24.7641C104.7 25.0279 104.624 25.2085 104.443 25.3474C104.228 25.5141 103.839 25.6113 103.388 25.6113H103.367C102.589 25.6113 101.686 25.0349 101.638 24.2085C101.631 24.1043 101.645 23.9863 101.673 23.8821ZM101.659 26.8821C102.117 27.1321 102.652 27.2641 103.214 27.2641C103.916 27.2641 104.596 27.0558 105.124 26.6738C106.214 25.8961 106.325 24.5558 106.062 23.5627C105.805 22.5697 105.048 21.3891 103.763 21.2849C103.673 21.2779 103.589 21.2779 103.506 21.2779C102.048 21.2779 100.728 22.1946 100.284 23.5002C100.284 23.5141 100.277 23.5349 100.277 23.5418C100.27 23.5627 100.263 23.5835 100.256 23.5974C100.062 24.3058 100.103 24.9515 100.374 25.5418C100.631 26.0974 101.075 26.5557 101.659 26.8821ZM110.853 33.2363C110.742 33.2433 110.624 33.2294 110.527 33.2015C110.186 33.0905 109.943 32.8613 109.756 32.4654C109.631 32.1946 109.555 31.8682 109.555 31.5766C109.555 31.4377 109.575 31.3127 109.61 31.2015C109.818 30.5766 110.686 30.2085 111.402 30.1807C111.666 30.1738 111.853 30.2502 111.992 30.4307C112.152 30.6461 112.249 31.0279 112.256 31.4794V31.5002C112.256 32.2779 111.68 33.1877 110.853 33.2363ZM110.2 28.8058C109.214 29.0627 108.027 29.8266 107.93 31.1113C107.923 31.1946 107.916 31.2779 107.916 31.3682C107.916 32.8197 108.832 34.1461 110.138 34.5835C110.159 34.5905 110.173 34.5974 110.18 34.5974C110.2 34.6043 110.228 34.6113 110.242 34.6113C110.943 34.8058 111.596 34.771 112.18 34.5002C112.735 34.2432 113.2 33.7987 113.52 33.2085C113.77 32.7502 113.902 32.2154 113.902 31.653C113.902 30.9515 113.693 30.2779 113.312 29.7433C112.534 28.653 111.193 28.5418 110.2 28.8058ZM104.645 32.0974C104.541 32.4307 104.305 32.6738 103.909 32.8613C103.638 32.9933 103.318 33.0627 103.027 33.0627C102.881 33.0627 102.756 33.0487 102.652 33.0141C102.02 32.8058 101.659 31.9307 101.631 31.2225C101.617 30.9515 101.693 30.771 101.874 30.6321C102.089 30.4725 102.471 30.3751 102.923 30.3682H102.95C103.728 30.3682 104.631 30.9446 104.68 31.771C104.686 31.8821 104.673 31.9933 104.645 32.0974ZM104.659 29.1043C104.2 28.8543 103.659 28.7225 103.103 28.7225C102.402 28.7225 101.721 28.9307 101.193 29.3058C100.103 30.0835 99.9921 31.4307 100.256 32.4238C100.513 33.4099 101.27 34.5974 102.555 34.6946C102.645 34.7015 102.728 34.7085 102.812 34.7085C104.27 34.7085 105.589 33.7849 106.027 32.4794C106.034 32.4654 106.041 32.4515 106.041 32.4377C106.048 32.4169 106.055 32.3961 106.062 32.3821C106.256 31.6807 106.214 31.0279 105.943 30.4446C105.686 29.8891 105.242 29.4238 104.659 29.1043Z" fill="#EF5125"/>
<path d="M113.557 14.7292C113.8 14.4028 113.862 14 113.716 13.6806C113.57 13.3403 113.223 13.125 112.744 13.0764C111.133 12.8959 109.55 12.8056 107.98 12.8056C105.862 12.8056 103.772 12.9653 101.668 13.2917C101.251 13.3542 100.918 13.5278 100.709 13.7986C100.536 14.0208 100.459 14.3056 100.501 14.5764C100.564 15.0208 100.98 15.5347 101.932 15.5347C102.07 15.5347 102.223 15.5278 102.376 15.5C105.334 15.0486 108.591 15 111.807 15.3542C112.563 15.4375 113.202 15.2083 113.557 14.7292ZM100.452 8.63196C100.23 8.97224 100.182 9.37501 100.341 9.68752C100.501 10.0209 100.855 10.2222 101.341 10.25C105.133 10.507 108.73 10.2847 112.397 9.55557C113.265 9.38891 113.612 8.75696 113.508 8.22224C113.397 7.65973 112.751 7.1528 111.591 7.38196C108.661 7.95835 105.404 8.1528 102.175 7.93752C102.112 7.93057 102.05 7.93057 101.987 7.93057C101.307 7.93057 100.758 8.18057 100.452 8.63196Z" fill="#7BB951"/>
<path d="M93.1748 12.625C93.1261 13.118 92.9873 13.4097 92.6261 13.7153C91.7373 14.4653 90.3345 14.3611 89.3345 13.9236C88.7094 13.6528 88.1817 13.2153 87.8276 12.6319C87.404 11.9305 87.4248 11.1042 87.6192 10.3403C87.8137 9.71526 88.1609 9.20138 88.7512 8.88193C89.3345 8.56249 90.1192 8.50693 90.7442 8.7361C91.7789 9.1111 92.5497 10.0972 92.9317 11.1042C93.1122 11.5764 93.2304 12.118 93.1748 12.625ZM90.4942 7.57638C88.772 7.45833 87.3553 8.74305 86.883 10.3333C86.8761 10.3542 86.8692 10.3819 86.8692 10.4097C86.8622 10.4305 86.8553 10.4444 86.8484 10.4653C86.4525 11.9305 86.7442 13.4097 87.9386 14.3959C88.8484 15.1389 90.1886 15.4583 91.3345 15.2083C92.6401 14.9305 93.633 13.9861 93.9248 12.6736C94.1748 11.5347 93.7858 10.3055 93.1609 9.34721C92.5706 8.44444 91.6122 7.65277 90.4942 7.57638Z" fill="#FCB713"/>
<path d="M91.9366 12.1042C91.9089 12.382 91.8325 12.5487 91.631 12.7223C91.1241 13.1459 90.3325 13.0834 89.77 12.8404C89.4158 12.6876 89.1172 12.4376 88.9228 12.1112C88.6866 11.7154 88.6936 11.257 88.7977 10.8265C88.9089 10.4723 89.1033 10.1737 89.4436 9.99313C89.77 9.81257 90.2144 9.77785 90.5686 9.9098C91.152 10.1181 91.5825 10.6806 91.8048 11.2431C91.902 11.514 91.9713 11.8195 91.9366 12.1042ZM90.4297 9.25702C89.4505 9.18757 88.652 9.91675 88.3881 10.8126C88.381 10.8265 88.381 10.8473 88.3741 10.8612C88.3741 10.8681 88.3672 10.882 88.3672 10.889C88.145 11.7154 88.3048 12.5487 88.9853 13.1042C89.4992 13.5279 90.2492 13.7015 90.902 13.5625C91.6381 13.4099 92.1936 12.8751 92.3602 12.132C92.5061 11.4862 92.2838 10.7987 91.9366 10.257C91.5964 9.74313 91.0548 9.29869 90.4297 9.25702Z" fill="#FCB713"/>
<path d="M95.3341 13.5417C95.2438 14.4028 95.0008 14.9166 94.3688 15.4514C92.7993 16.7848 90.3272 16.5902 88.5632 15.8264C87.466 15.3472 86.5354 14.5764 85.9105 13.5486C85.1674 12.3264 85.1952 10.875 85.5354 9.52777C85.8757 8.41666 86.4938 7.51389 87.5354 6.94444C88.5702 6.38194 89.9452 6.27777 91.0493 6.68056C92.8757 7.34028 94.2298 9.08333 94.9036 10.8472C95.2229 11.6945 95.4313 12.6319 95.3341 13.5417ZM90.6188 4.63889C87.5702 4.43056 85.0772 6.70138 84.2508 9.5C84.2438 9.53472 84.2298 9.57638 84.216 9.625C84.209 9.65972 84.1952 9.70138 84.1813 9.7361C83.4869 12.3125 84.0008 14.9166 86.1118 16.6528C87.709 17.9653 90.0702 18.5209 92.0841 18.0902C94.3896 17.5972 96.1396 15.9305 96.6536 13.625C97.098 11.6111 96.4105 9.44444 95.3132 7.76389C94.2716 6.16666 92.5841 4.77777 90.6188 4.63889Z" fill="#FCB713"/>
<path d="M90.916 12.007C90.6868 12.1945 90.3396 12.1667 90.0826 12.0556C89.9298 11.9861 89.7978 11.882 89.7076 11.7361C89.6034 11.5556 89.6034 11.3473 89.652 11.1528C89.7076 11 89.7909 10.8681 89.9368 10.7917C90.0826 10.7084 90.284 10.6945 90.4437 10.75C90.7006 10.8473 90.895 11.0973 90.9924 11.3473C91.034 11.4653 91.0617 11.6042 91.0548 11.7292C91.0409 11.8542 91.0062 11.9306 90.916 12.007ZM90.3812 10.4653C89.9437 10.4306 89.5896 10.757 89.4714 11.1528C89.4714 11.1597 89.4645 11.1667 89.4645 11.1736C89.4645 11.1806 89.4645 11.1806 89.4576 11.1875C89.3604 11.5556 89.4298 11.9306 89.7353 12.1736C89.9645 12.3611 90.2978 12.4445 90.5896 12.382C90.916 12.3125 91.166 12.0695 91.2424 11.7431C91.3048 11.4584 91.2076 11.1459 91.0478 10.9097C90.902 10.6806 90.659 10.4792 90.3812 10.4653Z" fill="#FCB713"/>
<path d="M3.46545 0H60.9654V38.3333H3.46545V0Z" fill="#254AA5"/>
<path d="M30.9858 8.35421L32.2012 7.46532L33.4164 8.35421L32.9512 6.91671L34.1873 6.03476H32.6664L32.2012 4.58337L31.7358 6.03476H30.222L31.4512 6.91671L30.9858 8.35421ZM24.7081 10.0348L25.9233 9.15281L27.1386 10.0348L26.6733 8.60421L27.9094 7.72227H26.3886L25.9233 6.27088L25.4581 7.72227H23.9373L25.1733 8.60421L24.7081 10.0348ZM21.3261 10.875L20.8678 12.3264H19.347L20.5761 13.2084L20.1178 14.6459L21.3261 13.757L22.5414 14.6459L22.083 13.2084L23.3122 12.3264H21.7984L21.3261 10.875ZM19.6456 20.0278L20.854 20.9098L20.3956 19.4792L21.6248 18.5972H20.1109L19.6456 17.1459L19.1804 18.5972H17.6594L18.8956 19.4792L18.4304 20.9098L19.6456 20.0278ZM21.7914 24.889L21.3261 23.4375L20.8678 24.889H19.347L20.5761 25.7708L20.1178 27.2014L21.3261 26.3195L22.5414 27.2014L22.083 25.7708L23.3122 24.889H21.7914ZM26.3956 29.4862L25.9304 28.0418L25.465 29.4931L23.9512 29.4862L25.1804 30.3751L24.722 31.8056L25.9304 30.9167L27.1456 31.8056L26.6873 30.3751L27.9164 29.4862H26.3956ZM32.6664 31.1528L32.2012 29.7084L31.7358 31.1598L30.222 31.1528L31.4512 32.0418L30.9928 33.4723L32.2012 32.5903L33.4164 33.4723L32.9512 32.0418L34.1873 31.1528H32.6664ZM38.9373 29.4862L38.472 28.0418L38.0066 29.4931L36.4928 29.4862L37.722 30.3751L37.2637 31.8056L38.472 30.9167L39.6873 31.8056L39.222 30.3751L40.4581 29.4862H38.9373ZM43.5414 24.889L43.0761 23.4375L42.6109 24.889H41.097L42.3261 25.7708L41.8678 27.2014L43.0761 26.3195L44.2914 27.2014L43.8261 25.7708L45.0622 24.889H43.5414ZM46.7289 18.5764H45.2081L44.7428 17.1251L44.2776 18.5834L42.7637 18.5764L43.9928 19.4654L43.5345 20.8959L44.7428 20.007L45.9581 20.8959L45.4997 19.4654L46.7289 18.5764ZM41.8678 14.6251L43.0761 13.7362L44.2914 14.6251L43.8261 13.1945L45.0622 12.3056H43.5414L43.0761 10.8542L42.6109 12.3056H41.097L42.3261 13.1945L41.8678 14.6251ZM38.4928 6.27088L38.0276 7.72227H36.5066L37.7428 8.60421L37.2776 10.0417L38.4928 9.15281L39.7012 10.0417L39.2428 8.60421L40.4789 7.72227H38.9581L38.4928 6.27088Z" fill="#FFF100"/>
<path d="M16.5972 49.2499V44.3402H19.9584V45.1735H17.5833V46.3333H19.632V47.1597H17.5833V49.2499H16.5972ZM23.1111 49.2499V48.7153C22.9792 48.9027 22.8056 49.0555 22.5972 49.1666C22.3889 49.2709 22.1667 49.3263 21.9305 49.3263C21.6944 49.3263 21.4792 49.2778 21.2917 49.1735C21.0972 49.0694 20.9584 48.9166 20.8751 48.7291C20.7917 48.5417 20.75 48.2778 20.75 47.9445V45.6945H21.6875V47.3263C21.6875 47.8263 21.7084 48.1319 21.7431 48.243C21.7777 48.3611 21.8403 48.4514 21.9305 48.5139C22.0208 48.5833 22.1389 48.6111 22.2777 48.6111C22.4375 48.6111 22.5833 48.5694 22.7084 48.4791C22.8333 48.3889 22.9236 48.2847 22.9723 48.1527C23.0208 48.0209 23.0417 47.7014 23.0417 47.1945V45.6945H23.9861V49.2499H23.1111ZM28.1875 49.2499H27.25V47.4306C27.25 47.0486 27.2292 46.8055 27.1875 46.6875C27.1459 46.5763 27.0833 46.4861 26.9931 46.4235C26.9028 46.3611 26.7987 46.3333 26.6667 46.3333C26.5069 46.3333 26.3611 46.375 26.2292 46.4653C26.0972 46.5555 26.0139 46.6735 25.9653 46.8194C25.9167 46.9722 25.8889 47.243 25.8889 47.6389V49.2499H24.9513V45.6945H25.8264V46.2153C26.132 45.8125 26.5277 45.6111 26.9931 45.6111C27.2013 45.6111 27.3959 45.6527 27.5625 45.7222C27.7361 45.7986 27.868 45.8958 27.9513 46.0139C28.0417 46.125 28.1041 46.2569 28.1389 46.4027C28.1736 46.5555 28.1875 46.7639 28.1875 47.0417V49.2499ZM29.8959 47.3958C29.8959 47.7709 29.9444 48.0486 30.0556 48.2153C30.2013 48.4653 30.4167 48.5833 30.6875 48.5833C30.9028 48.5833 31.0903 48.493 31.2431 48.3125C31.3889 48.125 31.4653 47.8473 31.4653 47.4861C31.4653 47.0763 31.3959 46.7847 31.25 46.6042C31.0972 46.4235 30.9097 46.3333 30.6805 46.3333C30.4584 46.3333 30.2708 46.4235 30.118 46.5973C29.9723 46.7778 29.8959 47.0417 29.8959 47.3958ZM32.4028 49.2499H31.5347V48.7291C31.3889 48.9306 31.2153 49.0833 31.0208 49.1806C30.8195 49.2778 30.6251 49.3263 30.4236 49.3263C30.0139 49.3263 29.6597 49.1666 29.368 48.8333C29.0764 48.5069 28.9375 48.0486 28.9375 47.4583C28.9375 46.8542 29.0764 46.3958 29.3611 46.0833C29.6459 45.7709 30 45.6111 30.4305 45.6111C30.8333 45.6111 31.1736 45.7778 31.4653 46.1111V44.3402H32.4028V49.2499ZM35.4444 47.1666C35.4375 46.8958 35.368 46.6875 35.2361 46.5486C35.1041 46.4027 34.9375 46.3333 34.7431 46.3333C34.5417 46.3333 34.3751 46.4097 34.2361 46.5555C34.1041 46.7083 34.0347 46.9097 34.0417 47.1666H35.4444ZM35.3889 48.1181L36.3264 48.2709C36.2083 48.6181 36.0208 48.8819 35.7569 49.0625C35.5 49.2361 35.1736 49.3263 34.7847 49.3263C34.1667 49.3263 33.7084 49.125 33.4097 48.7222C33.1736 48.4027 33.0556 47.993 33.0556 47.4999C33.0556 46.9097 33.2153 46.4445 33.5208 46.1111C33.8264 45.7778 34.2153 45.6111 34.6875 45.6111C35.2153 45.6111 35.6389 45.7847 35.9444 46.1389C36.25 46.4861 36.3959 47.0209 36.382 47.743H34.0208C34.0277 48.0209 34.1041 48.2361 34.25 48.3958C34.3959 48.5486 34.5764 48.625 34.7917 48.625C34.9375 48.625 35.0625 48.5833 35.1667 48.5069C35.2639 48.4235 35.3403 48.2917 35.3889 48.1181ZM37.8959 47.3958C37.8959 47.7709 37.9513 48.0486 38.0556 48.2153C38.2084 48.4653 38.4167 48.5833 38.6875 48.5833C38.9028 48.5833 39.0903 48.493 39.2431 48.3125C39.3959 48.125 39.4723 47.8473 39.4723 47.4861C39.4723 47.0763 39.3959 46.7847 39.25 46.6042C39.1041 46.4235 38.9097 46.3333 38.6805 46.3333C38.4584 46.3333 38.2708 46.4235 38.1251 46.5973C37.9723 46.7778 37.8959 47.0417 37.8959 47.3958ZM40.4097 49.2499H39.5347V48.7291C39.3889 48.9306 39.2153 49.0833 39.0208 49.1806C38.8195 49.2778 38.6251 49.3263 38.4236 49.3263C38.0139 49.3263 37.6667 49.1666 37.3751 48.8333C37.0833 48.5069 36.9375 48.0486 36.9375 47.4583C36.9375 46.8542 37.0764 46.3958 37.3611 46.0833C37.6459 45.7709 38 45.6111 38.4375 45.6111C38.8333 45.6111 39.1736 45.7778 39.4653 46.1111V44.3402H40.4097V49.2499ZM44.132 47.3958C44.132 47.7639 44.1944 48.0347 44.3056 48.2083C44.4723 48.4583 44.6875 48.5833 44.9584 48.5833C45.1667 48.5833 45.3403 48.4999 45.4861 48.3194C45.632 48.1389 45.7084 47.8611 45.7084 47.4791C45.7084 47.0763 45.632 46.7847 45.4861 46.6042C45.3403 46.4235 45.1528 46.3333 44.9167 46.3333C44.6944 46.3333 44.5069 46.4166 44.3541 46.5973C44.2084 46.7709 44.132 47.0347 44.132 47.3958ZM43.2013 49.2499V44.3402H44.1389V46.1111C44.4305 45.7778 44.7708 45.6111 45.1736 45.6111C45.6041 45.6111 45.9653 45.7709 46.2431 46.0833C46.5277 46.3958 46.6736 46.8473 46.6736 47.4375C46.6736 48.0417 46.5277 48.5069 46.2361 48.8402C45.9513 49.1666 45.5972 49.3263 45.1875 49.3263C44.9792 49.3263 44.7777 49.2778 44.5833 49.1735C44.3889 49.0763 44.2153 48.9235 44.0764 48.7291V49.2499H43.2013ZM46.9792 45.6945H47.9861L48.8333 48.2153L49.6667 45.6945H50.6389L49.382 49.1181L49.1597 49.7361C49.0764 49.9445 49 50.0973 48.9236 50.2083C48.8472 50.3194 48.7639 50.4097 48.6667 50.4722C48.5695 50.5417 48.4444 50.5973 48.3056 50.6319C48.1667 50.6735 48.0069 50.6945 47.8264 50.6945C47.6459 50.6945 47.4653 50.6735 47.2917 50.6319L47.2084 49.8958C47.3541 49.9306 47.4931 49.9445 47.6111 49.9445C47.8264 49.9445 47.9861 49.875 48.0903 49.7499C48.2013 49.6181 48.2777 49.4583 48.3333 49.2569L46.9792 45.6945ZM2.02084 53.9235V54.6735H1.375V56.1042C1.375 56.3958 1.38195 56.5625 1.39584 56.6111C1.40972 56.6597 1.43751 56.6945 1.47917 56.7291C1.52083 56.7639 1.57639 56.7778 1.63889 56.7778C1.72223 56.7778 1.85416 56.743 2.01389 56.6875L2.09723 57.4166C1.875 57.5069 1.63195 57.5555 1.35417 57.5555C1.1875 57.5555 1.03472 57.5278 0.895833 57.4722C0.756944 57.4166 0.659724 57.3402 0.597223 57.2499C0.534723 57.1597 0.486112 57.0347 0.465277 56.8819C0.444445 56.7709 0.430556 56.5555 0.430556 56.2222V54.6735H0V53.9235H0.430556V53.2153L1.375 52.6666V53.9235H2.02084ZM3.61111 52.5694V54.375C3.91667 54.0139 4.27777 53.8402 4.70139 53.8402C4.91667 53.8402 5.11111 53.8819 5.28472 53.9583C5.45833 54.0417 5.59028 54.1458 5.68056 54.2709C5.76389 54.3958 5.82639 54.5347 5.86111 54.6806C5.88889 54.8333 5.90972 55.0694 5.90972 55.3889V57.4791H4.96528V55.5973C4.96528 55.2291 4.95139 54.993 4.91667 54.8889C4.875 54.7917 4.81249 54.7083 4.72223 54.6458C4.63195 54.5902 4.52083 54.5625 4.38195 54.5625C4.22916 54.5625 4.09028 54.5973 3.96528 54.6735C3.84028 54.7499 3.75 54.8681 3.69444 55.0209C3.63889 55.1735 3.61111 55.3958 3.61111 55.6945V57.4791H2.67361V52.5694H3.61111ZM8.97223 55.3958C8.96528 55.125 8.89584 54.9166 8.76389 54.7709C8.63195 54.6319 8.46528 54.5625 8.27084 54.5625C8.06944 54.5625 7.90277 54.6319 7.76389 54.7847C7.63195 54.9306 7.56251 55.1389 7.56944 55.3958H8.97223ZM8.92361 56.3473L9.85417 56.4999C9.73611 56.8473 9.54861 57.1111 9.28472 57.2847C9.02777 57.4653 8.70139 57.5555 8.31251 57.5555C7.69444 57.5555 7.23611 57.3542 6.93751 56.9514C6.70139 56.625 6.58333 56.2222 6.58333 55.7222C6.58333 55.1389 6.74305 54.6735 7.04861 54.3402C7.35416 54.0069 7.75 53.8402 8.21528 53.8402C8.74305 53.8402 9.16667 54.0139 9.47223 54.3681C9.77777 54.7153 9.92361 55.2499 9.90972 55.9722H7.54861C7.55556 56.2499 7.63195 56.4653 7.77777 56.6181C7.92361 56.7778 8.10417 56.8542 8.31944 56.8542C8.47223 56.8542 8.59028 56.8125 8.69444 56.7361C8.79167 56.6527 8.86805 56.5209 8.92361 56.3473ZM12.5833 57.4791V52.5694H16.2223V53.3958H13.5764V54.4861H16.0417V55.3125H13.5764V56.6527H16.3195V57.4791H12.5833ZM19.4931 57.4791V56.9445C19.3611 57.1319 19.1944 57.2847 18.9861 57.3958C18.7708 57.4999 18.5487 57.5555 18.3125 57.5555C18.0764 57.5555 17.8611 57.5069 17.6736 57.4027C17.4792 57.2917 17.3472 57.1458 17.2569 56.9583C17.1736 56.7639 17.132 56.5069 17.132 56.1735V53.9235H18.0764V55.5555C18.0764 56.0555 18.0903 56.3611 18.1251 56.4722C18.1597 56.5833 18.2223 56.6735 18.3125 56.743C18.4097 56.8055 18.5208 56.8402 18.6597 56.8402C18.8195 56.8402 18.9653 56.7986 19.0972 56.7083C19.2223 56.6181 19.3056 56.5139 19.3541 56.3819C19.4028 56.2499 19.4236 55.9306 19.4236 55.4235V53.9235H20.368V57.4791H19.4931ZM22.2431 57.4791H21.2987V53.9235H22.1736V54.4235C22.3264 54.1875 22.4584 54.0278 22.5764 53.9514C22.6944 53.875 22.8333 53.8402 22.9861 53.8402C23.2013 53.8402 23.4028 53.9027 23.6041 54.0209L23.3125 54.8402C23.1528 54.7361 23.0069 54.6806 22.868 54.6806C22.7361 54.6806 22.6251 54.7222 22.5347 54.7917C22.4444 54.8681 22.3751 54.993 22.3195 55.1875C22.2708 55.375 22.2431 55.7709 22.2431 56.375V57.4791ZM24.7569 55.7014C24.7569 56.0486 24.8403 56.3194 25.0069 56.5069C25.1736 56.6945 25.382 56.7917 25.6251 56.7917C25.8751 56.7917 26.0764 56.6945 26.2431 56.5069C26.4097 56.3194 26.4931 56.0486 26.4931 55.6945C26.4931 55.3402 26.4097 55.0763 26.2431 54.8889C26.0764 54.7014 25.8751 54.6042 25.6251 54.6042C25.382 54.6042 25.1736 54.7014 25.0069 54.8889C24.8403 55.0763 24.7569 55.3473 24.7569 55.7014ZM23.7917 55.6458C23.7917 55.3333 23.868 55.0347 24.0208 54.743C24.1736 54.4514 24.3959 54.2222 24.6805 54.0694C24.9584 53.9166 25.2777 53.8402 25.6251 53.8402C26.1597 53.8402 26.6041 54.0139 26.9444 54.3611C27.2916 54.7153 27.4584 55.1527 27.4584 55.6875C27.4584 56.2291 27.2847 56.6735 26.9375 57.0278C26.5972 57.3819 26.1597 57.5555 25.632 57.5555C25.3056 57.5555 24.9931 57.4861 24.6944 57.3333C24.4028 57.1875 24.1736 56.9722 24.0208 56.6875C23.868 56.4027 23.7917 56.0555 23.7917 55.6458ZM29.1041 55.6389C29.1041 56.0417 29.1805 56.3333 29.3403 56.5209C29.5 56.7153 29.6875 56.8125 29.9167 56.8125C30.1389 56.8125 30.3195 56.7222 30.4653 56.5486C30.6111 56.375 30.6805 56.0833 30.6805 55.6875C30.6805 55.3125 30.6041 55.0347 30.4584 54.8542C30.3056 54.6735 30.1251 54.5833 29.9028 54.5833C29.6736 54.5833 29.4792 54.6735 29.3264 54.8542C29.1805 55.0278 29.1041 55.2917 29.1041 55.6389ZM28.1667 53.9235H29.0487V54.4445C29.1597 54.2639 29.3195 54.1181 29.5139 54.0069C29.7013 53.8958 29.9167 53.8402 30.1528 53.8402C30.5695 53.8402 30.9236 53.9999 31.2084 54.3263C31.4931 54.6527 31.6389 55.0973 31.6389 55.6806C31.6389 56.2709 31.4931 56.7361 31.2013 57.0625C30.9097 57.3958 30.5625 57.5555 30.1459 57.5555C29.9513 57.5555 29.7777 57.5209 29.618 57.4375C29.4584 57.3611 29.2916 57.2291 29.1111 57.0347V58.8263H28.1667V53.9235ZM34.5 55.3958C34.4931 55.125 34.4236 54.9166 34.2847 54.7709C34.1528 54.6319 33.9931 54.5625 33.7987 54.5625C33.5903 54.5625 33.4236 54.6319 33.2917 54.7847C33.1528 54.9306 33.0903 55.1389 33.0903 55.3958H34.5ZM34.4444 56.3473L35.382 56.4999C35.2639 56.8473 35.0695 57.1111 34.8125 57.2847C34.5487 57.4653 34.2292 57.5555 33.8333 57.5555C33.2153 57.5555 32.7569 57.3542 32.4653 56.9514C32.2292 56.625 32.1111 56.2222 32.1111 55.7222C32.1111 55.1389 32.2639 54.6735 32.5764 54.3402C32.882 54.0069 33.2708 53.8402 33.7431 53.8402C34.2708 53.8402 34.6875 54.0139 34.9931 54.3681C35.2987 54.7153 35.4444 55.2499 35.4305 55.9722H33.0764C33.0833 56.2499 33.1597 56.4653 33.3056 56.6181C33.4444 56.7778 33.632 56.8542 33.8472 56.8542C33.9931 56.8542 34.118 56.8125 34.2153 56.7361C34.3195 56.6527 34.3959 56.5209 34.4444 56.3473ZM38.1597 55.7709C38.0416 55.8125 37.8472 55.8611 37.5903 55.9097C37.3264 55.9653 37.1597 56.0209 37.0764 56.0763C36.9513 56.1666 36.8889 56.2709 36.8889 56.4097C36.8889 56.5417 36.9444 56.6527 37.0417 56.7499C37.1389 56.8473 37.2639 56.8958 37.4167 56.8958C37.5833 56.8958 37.7431 56.8402 37.9028 56.7291C38.0139 56.6389 38.0903 56.5417 38.1251 56.4166C38.1459 56.3333 38.1597 56.1806 38.1597 55.9583V55.7709ZM36.9028 55.0069L36.0487 54.8542C36.1459 54.5069 36.3125 54.2569 36.5417 54.0902C36.7777 53.9235 37.1251 53.8402 37.5903 53.8402C38.0069 53.8402 38.3195 53.8889 38.5277 53.9861C38.7292 54.0902 38.8751 54.2153 38.9584 54.3681C39.0417 54.5209 39.0833 54.7986 39.0833 55.2083L39.0764 56.3055C39.0764 56.6181 39.0903 56.8542 39.118 56.9999C39.1528 57.1458 39.2084 57.3055 39.2917 57.4722H38.3611C38.3333 57.4166 38.3056 57.3194 38.2708 57.2014C38.25 57.1458 38.2431 57.1042 38.2361 57.0902C38.0764 57.243 37.9028 57.3611 37.7153 57.4375C37.5347 57.5209 37.3403 57.5555 37.132 57.5555C36.7639 57.5555 36.4792 57.4583 36.2708 57.2569C36.0556 57.0625 35.9513 56.8055 35.9513 56.5069C35.9513 56.3055 36 56.125 36.0972 55.9653C36.1944 55.8125 36.3264 55.6875 36.5 55.6042C36.6736 55.5209 36.9236 55.4514 37.25 55.3889C37.6875 55.3055 37.9931 55.2291 38.1597 55.1527V55.0625C38.1597 54.8819 38.118 54.7499 38.0277 54.6735C37.9375 54.5973 37.7708 54.5625 37.5208 54.5625C37.3541 54.5625 37.2223 54.5902 37.132 54.6597C37.0347 54.7222 36.9584 54.8402 36.9028 55.0069ZM43.2431 57.4791H42.3056V55.6597C42.3056 55.2778 42.2847 55.0278 42.2431 54.9166C42.2013 54.8055 42.1389 54.7153 42.0487 54.6527C41.9583 54.5902 41.8472 54.5625 41.7223 54.5625C41.5625 54.5625 41.4167 54.6042 41.2847 54.6945C41.1528 54.7847 41.0695 54.9027 41.0208 55.0486C40.9723 55.1945 40.9444 55.4722 40.9444 55.8681V57.4791H40.0069V53.9235H40.882V54.4445C41.1875 54.0417 41.5833 53.8402 42.0487 53.8402C42.2569 53.8402 42.4513 53.875 42.618 53.9514C42.7917 54.0278 42.9236 54.125 43.0069 54.2361C43.0972 54.3542 43.1597 54.4861 43.1944 54.6319C43.2292 54.7847 43.2431 54.993 43.2431 55.2639V57.4791ZM46.1041 52.5694H47.0972V55.2291C47.0972 55.6458 47.1111 55.9235 47.132 56.0486C47.1736 56.2499 47.2777 56.4097 47.4375 56.5278C47.5972 56.6527 47.8125 56.7153 48.0903 56.7153C48.3751 56.7153 48.5833 56.6527 48.7292 56.5417C48.868 56.4235 48.9584 56.2847 48.9861 56.1181C49.0139 55.9514 49.0277 55.6735 49.0277 55.2847V52.5694H50.0208V55.1458C50.0208 55.7361 49.9931 56.1527 49.9375 56.3958C49.882 56.6389 49.7847 56.8473 49.6459 57.0139C49.5 57.1806 49.3056 57.3125 49.0625 57.4097C48.8264 57.5139 48.5069 57.5625 48.118 57.5625C47.6528 57.5625 47.2987 57.5069 47.0556 57.3958C46.8125 57.2917 46.618 57.1527 46.4792 56.9722C46.3403 56.8055 46.25 56.625 46.2013 56.4306C46.1389 56.1527 46.1041 55.7361 46.1041 55.1875V52.5694ZM54.2917 57.4791H53.3472V55.6597C53.3472 55.2778 53.3333 55.0278 53.2917 54.9166C53.25 54.8055 53.1875 54.7153 53.0972 54.6527C53.0069 54.5902 52.8959 54.5625 52.7639 54.5625C52.6041 54.5625 52.4584 54.6042 52.3333 54.6945C52.2013 54.7847 52.1111 54.9027 52.0625 55.0486C52.0139 55.1945 51.9931 55.4722 51.9931 55.8681V57.4791H51.0487V53.9235H51.9236V54.4445C52.2361 54.0417 52.6251 53.8402 53.0972 53.8402C53.3056 53.8402 53.4931 53.875 53.6667 53.9514C53.8403 54.0278 53.9653 54.125 54.0556 54.2361C54.1459 54.3542 54.2013 54.4861 54.2361 54.6319C54.2708 54.7847 54.2917 54.993 54.2917 55.2639V57.4791ZM55.2431 53.9235H56.1875V57.4791H55.2431V53.9235ZM55.2431 52.5694H56.1875V53.4375H55.2431V52.5694ZM57.8959 55.7014C57.8959 56.0486 57.9792 56.3194 58.1459 56.5069C58.3125 56.6945 58.5208 56.7917 58.7708 56.7917C59.0139 56.7917 59.2223 56.6945 59.382 56.5069C59.5487 56.3194 59.632 56.0486 59.632 55.6945C59.632 55.3402 59.5487 55.0763 59.382 54.8889C59.2223 54.7014 59.0139 54.6042 58.7708 54.6042C58.5208 54.6042 58.3125 54.7014 58.1459 54.8889C57.9792 55.0763 57.8959 55.3473 57.8959 55.7014ZM56.9305 55.6458C56.9305 55.3333 57.0069 55.0347 57.1667 54.743C57.3195 54.4514 57.5347 54.2222 57.8195 54.0694C58.1041 53.9166 58.4167 53.8402 58.7639 53.8402C59.2987 53.8402 59.7431 54.0139 60.0903 54.3611C60.4305 54.7153 60.6041 55.1527 60.6041 55.6875C60.6041 56.2291 60.4305 56.6735 60.0833 57.0278C59.7361 57.3819 59.2987 57.5555 58.7708 57.5555C58.4444 57.5555 58.132 57.4861 57.8403 57.3333C57.5417 57.1875 57.3195 56.9722 57.1667 56.6875C57.0069 56.4027 56.9305 56.0555 56.9305 55.6458ZM64.5695 57.4791H63.632V55.6597C63.632 55.2778 63.6111 55.0278 63.5695 54.9166C63.5277 54.8055 63.4653 54.7153 63.3751 54.6527C63.2847 54.5902 63.1736 54.5625 63.0487 54.5625C62.8889 54.5625 62.7361 54.6042 62.6111 54.6945C62.4792 54.7847 62.3959 54.9027 62.3472 55.0486C62.2987 55.1945 62.2708 55.4722 62.2708 55.8681V57.4791H61.3333V53.9235H62.2084V54.4445C62.5139 54.0417 62.9028 53.8402 63.3751 53.8402C63.5833 53.8402 63.7708 53.875 63.9444 53.9514C64.118 54.0278 64.25 54.125 64.3333 54.2361C64.4236 54.3542 64.4861 54.4861 64.5208 54.6319C64.5556 54.7847 64.5695 54.993 64.5695 55.2639V57.4791Z" fill="#254AA5"/>
</svg>
