<svg width="35" height="35" viewBox="0 0 35 35" fill="none" xmlns="http://www.w3.org/2000/svg">
<rect width="35" height="35" fill="white" fill-opacity="0.3"/>
<g clip-path="url(#clip0_6_135)">
<path d="M18 8C12.48 8 8 12.48 8 18C8 23.52 12.48 28 18 28H23V26H18C13.66 26 10 22.34 10 18C10 13.66 13.66 10 18 10C22.34 10 26 13.66 26 18V19.43C26 20.22 25.29 21 24.5 21C23.71 21 23 20.22 23 19.43V18C23 15.24 20.76 13 18 13C15.24 13 13 15.24 13 18C13 20.76 15.24 23 18 23C19.38 23 20.64 22.44 21.54 21.53C22.19 22.42 23.31 23 24.5 23C26.47 23 28 21.4 28 19.43V18C28 12.48 23.52 8 18 8ZM18 21C16.34 21 15 19.66 15 18C15 16.34 16.34 15 18 15C19.66 15 21 16.34 21 18C21 19.66 19.66 21 18 21Z" fill="white"/>
</g>
<defs>
<clipPath id="clip0_6_135">
<rect width="24" height="24" fill="white" transform="translate(6 6)"/>
</clipPath>
</defs>
</svg>
