<svg width="35" height="35" viewBox="0 0 35 35" fill="none" xmlns="http://www.w3.org/2000/svg">
<rect width="35" height="35" fill="white" fill-opacity="0.4"/>
<g clip-path="url(#clip0_6_140)">
<path d="M18.4836 12.6093C15.5084 12.6093 13.1085 15.014 13.1085 17.9952C13.1085 20.9765 15.5084 23.3811 18.4836 23.3811C21.4589 23.3811 23.8587 20.9765 23.8587 17.9952C23.8587 15.014 21.4589 12.6093 18.4836 12.6093ZM18.4836 21.4968C16.561 21.4968 14.9891 19.9265 14.9891 17.9952C14.9891 16.064 16.5563 14.4936 18.4836 14.4936C20.411 14.4936 21.9782 16.064 21.9782 17.9952C21.9782 19.9265 20.4063 21.4968 18.4836 21.4968ZM25.3323 12.389C25.3323 13.0874 24.771 13.6452 24.0786 13.6452C23.3816 13.6452 22.8249 13.0827 22.8249 12.389C22.8249 11.6952 23.3863 11.1327 24.0786 11.1327C24.771 11.1327 25.3323 11.6952 25.3323 12.389ZM28.8923 13.664C28.8128 11.9812 28.4292 10.4905 27.1989 9.2624C25.9732 8.03428 24.4856 7.6499 22.8062 7.56553C21.0753 7.46709 15.8873 7.46709 14.1564 7.56553C12.4817 7.64521 10.9941 8.02959 9.76372 9.25771C8.53339 10.4858 8.15447 11.9765 8.07026 13.6593C7.97202 15.3936 7.97202 20.5921 8.07026 22.3265C8.14979 24.0093 8.53339 25.4999 9.76372 26.728C10.9941 27.9561 12.477 28.3405 14.1564 28.4249C15.8873 28.5233 21.0753 28.5233 22.8062 28.4249C24.4856 28.3452 25.9732 27.9608 27.1989 26.728C28.4245 25.4999 28.8081 24.0093 28.8923 22.3265C28.9906 20.5921 28.9906 15.3983 28.8923 13.664ZM26.6562 24.1874C26.2913 25.1061 25.585 25.814 24.6634 26.1843C23.2833 26.7327 20.0087 26.6061 18.4836 26.6061C16.9586 26.6061 13.6793 26.728 12.3039 26.1843C11.387 25.8186 10.6806 25.1108 10.3111 24.1874C9.76372 22.8046 9.89003 19.5233 9.89003 17.9952C9.89003 16.4671 9.7684 13.1811 10.3111 11.803C10.6759 10.8843 11.3823 10.1765 12.3039 9.80615C13.6839 9.25771 16.9586 9.38428 18.4836 9.38428C20.0087 9.38428 23.288 9.2624 24.6634 9.80615C25.5803 10.1718 26.2867 10.8796 26.6562 11.803C27.2036 13.1858 27.0773 16.4671 27.0773 17.9952C27.0773 19.5233 27.2036 22.8093 26.6562 24.1874Z" fill="white"/>
</g>
<defs>
<clipPath id="clip0_6_140">
<rect width="20.9577" height="24" fill="white" transform="translate(8 6)"/>
</clipPath>
</defs>
</svg>
