<svg width="35" height="35" viewBox="0 0 35 35" fill="none" xmlns="http://www.w3.org/2000/svg">
<rect width="35" height="35" fill="white" fill-opacity="0.4"/>
<path d="M28.9023 13.0658C28.6406 12.1002 27.8695 11.3398 26.8904 11.0817C25.1159 10.6128 18 10.6128 18 10.6128C18 10.6128 10.8842 10.6128 9.10953 11.0817C8.13048 11.3398 7.3594 12.1002 7.09769 13.0658C6.62219 14.8159 6.62219 18.4673 6.62219 18.4673C6.62219 18.4673 6.62219 22.1188 7.09769 23.8689C7.3594 24.8345 8.13048 25.5632 9.10953 25.8213C10.8842 26.2902 18 26.2902 18 26.2902C18 26.2902 25.1158 26.2902 26.8904 25.8213C27.8695 25.5632 28.6406 24.8345 28.9023 23.8689C29.3778 22.1188 29.3778 18.4673 29.3778 18.4673C29.3778 18.4673 29.3778 14.8159 28.9023 13.0658ZM15.6727 21.7826V15.1521L21.6202 18.4674L15.6727 21.7826Z" fill="white"/>
</svg>
